<?xml version="1.0" encoding="utf-8"?>
<!-- Generator: Adobe Illustrator 21.0.2, SVG Export Plug-In . SVG Version: 6.00 Build 0)  -->
<svg version="1.1" id="Layer_1" xmlns="http://www.w3.org/2000/svg" xmlns:xlink="http://www.w3.org/1999/xlink" x="0px" y="0px"
	 viewBox="0 0 921 327" style="enable-background:new 0 0 921 327;" xml:space="preserve">
<style type="text/css">
	.st0{fill:#1B9ACA;}
	.st1{fill:#060606;}
	.st2{fill:#0B0B0B;}
	.st3{fill:#7C7C7C;}
	.st4{fill:#727272;}
	.st5{fill:#4E4E4E;}
	.st6{fill:#595959;}
	.st7{fill:#090909;}
	.st8{fill:#F5F5F5;}
	.st9{fill:#3A3A3A;}
	.st10{fill:#FFFFFF;}
	.st11{font-family:'Arial-Black';}
	.st12{font-size:18.6624px;}
	.st13{font-size:18.6619px;}
	.st14{fill:#0A8FC6;}
	.st15{fill:#0B8FC7;}
	.st16{fill:#FE080D;}
	.st17{fill:#0B8FC5;}
</style>
<path class="st0" d="M162.9,17.7C82,17.7,16.4,83.3,16.4,164.1c0,80.9,65.5,146.4,146.4,146.4s146.4-65.6,146.4-146.4
	C309.3,83.3,243.8,17.7,162.9,17.7z M169.3,279.4c-63.1,3.1-119.3-44.7-122.1-112.4c-1-63.2,46.8-114,107-118
	c66-4.3,120.6,44.4,124.2,109.8C281.8,221,231.8,276.2,169.3,279.4z"/>
<path class="st1" d="M242.2,165.1c-0.5,0.1-1,0.2-1.5,0.3l0,0c-4.5,0.7-9.1,0.2-13.6,0.1c-8.3-0.1-16.6,0.5-24.9-0.3
	c-0.4-0.1-0.8-0.1-1.2-0.1c0.1-0.6,0.1-0.6,0.1-1.3c0.6-0.1,1.4-0.7,2.1-0.8c2.1,0,6.2,0,6.2,0l11-0.5c0,0-0.1-6.4,0-9.9
	c0-0.2-0.7-29.8-1-30.5c-5,12-9.9,24-14.8,35.9c-0.5,1.2-0.5,3.3-0.6,4.7c0.2,0.3-1.4,2.1-1.4,0.7c-0.7,0.3-0.9,0.1-1.4,0.6
	c5.7-14,17.4-43,17.4-43l0.8-7.7c0,0,3.2,3.2,3.9,2.9c0.3,1.3,0.9,3.9,0.9,3.9s11.4,27.5,17.1,41.3c-0.4-0.2,0,2.4-0.5,2.4
	c-5.7-13.6-17.7-43.4-17.7-43.4s-0.6,1.9-0.6,2.9l0,0c0,0.9-0.8,24.7-0.8,24.7l-0.1,12.3l0.1,2.2c0,0,13.4,1.4,18.9-0.1
	c0.3-0.3,0.5-0.6,0.8-0.9C241.4,162.7,241.8,163.9,242.2,165.1z"/>
<path class="st0" d="M164.6,195.6c-0.8-1.1-0.8-2.4-0.9-3.7c-1.2-3.5-1-7.2-1.4-10.8L164.6,195.6z"/>
<path class="st0" d="M167.6,194.8c-0.1,0.2-0.1,0.4-0.1,0.6c-0.4-0.1-0.8-0.2-1.2-0.5v-0.1c-0.2-0.4-0.4-0.9-0.5-1.3l1.1-11.7
	C166.6,186.2,165.9,190.6,167.6,194.8z"/>
<path class="st2" d="M151.3,101.9c2.3,1.9,5.6,4.4,5,6.8c-0.6,2.5-4.7,0.2-7.1,1.1c-4.6-2.7-9.1-2.1-13.5,0.6c-3.4,2.1-7,3.7-11.1,4
	c-3,0.2-6.2,2.2-8.8-1c-1.4-2.1-3.3-3.9-4.2-6.3c-0.8-2.4-0.5-4.4,1.3-6.1c1.4-1.3,3.1-1.7,4.9-0.9c2.1,1,3.1,2.9,2.5,5.1
	c-0.6,2.2,0.4,2.4,2.2,2.4c3.4,0,6.7-0.9,9.3-3C137.9,99.7,144.2,98.5,151.3,101.9z"/>
<path class="st2" d="M192.5,108.7c-2-2.7-0.9-6.1,2.9-8.8c4-0.1,7.5,1.2,10.6,3.7c2.3,1.8,4.7,3.2,7.6,3.8c2.9,0.5,6.2,1.5,5.6-3.7
	c-0.2-2.3,1.7-3.8,4.1-3.8c2.7,0.1,4.4,1.6,4.7,4.4c0.4,3.5-1.7,6-3.9,8.3c-2.1,4.4-5.7,2.2-8.9,2c-4.2-0.3-7.9-1.9-11.5-4.1
	C200.3,108.4,196.6,107.4,192.5,108.7z"/>
<path class="st2" d="M242.1,166.2c-0.9,2.8-3.2,4.4-5.7,5.5c-9.7,4.4-19.4,4.3-29.1,0.2c-2.6-1.1-5.2-2.6-6-5.7
	c1.3-1.6,3-1.5,4.8-1.5c10.4,0,20.9,0,31.3,0C239,164.7,240.8,164.6,242.1,166.2z"/>
<path class="st2" d="M138.1,167.2c-2.4,3.8-6.2,5.4-10.2,6.4c-8.4,2.2-16.7,1.9-24.6-1.9c-2.4-1.1-4.9-2.4-5.5-5.5
	c1.3-1.5,3.1-1.5,4.9-1.5c10.2,0,20.4-0.1,30.6,0C135.1,164.7,137.7,164.1,138.1,167.2z"/>
<path class="st1" d="M138.8,165.1c-0.5,0.1-1,0.2-1.5,0.3l0,0c-4.5,0.7-9.1,0.2-13.6,0.1c-8.3-0.1-16.6,0.5-24.9-0.3
	c-0.4-0.1-0.8-0.1-1.2-0.1c0.1-0.6,0.1-0.6,0.1-1.3c0.6-0.1,1.4-0.7,2.1-0.8c2.1,0,6.2,0,6.2,0l11-0.5c0,0-0.1-6.4,0-9.9
	c0-0.2-0.7-29.8-1-30.5c-5,12-9.9,24-14.8,35.9c-0.5,1.2-0.5,3.3-0.6,4.7c0.2,0.3-1.4,2.1-1.4,0.7c-0.7,0.3-0.9,0.1-1.4,0.6
	c5.7-14,17.4-43,17.4-43l0.8-7.7c0,0,3.2,3.2,3.9,2.9c0.3,1.3,0.9,3.9,0.9,3.9s11.4,27.5,17.1,41.3c-0.4-0.2,0,2.4-0.5,2.4
	c-5.7-13.6-17.7-43.4-17.7-43.4s-0.6,1.9-0.6,2.9l0,0c0,0.9-0.8,24.7-0.8,24.7l-0.1,12.3l0.1,2.2c0,0,13.4,1.4,18.9-0.1
	c0.3-0.3,0.5-0.6,0.8-0.9C138,162.7,138.4,163.9,138.8,165.1z"/>
<path class="st3" d="M119.7,116.3c-0.7,0.4-1.4,0.8-2.1,1.1C117.9,116.5,118.6,115.9,119.7,116.3z"/>
<path class="st4" d="M97.6,165.2c13.7,0,27.5-0.1,41.2-0.1c0,0.8,0,1.5-0.6,2.1c-1.6-1.5-3.6-1-5.5-1c-11.6-0.1-23.2,0-34.9,0
	C97.7,165.9,97.7,165.5,97.6,165.2z"/>
<path class="st4" d="M201.1,165.1c13.7,0,27.4,0,41.1,0c-0.1,0.4-0.1,0.7-0.2,1.1c-13.6,0-27.2,0-40.8,0
	C201.2,165.9,201.2,165.5,201.1,165.1z"/>
<path class="st5" d="M223.3,119.1c-1.1-0.1-2.2-0.2-3.2-1.1c-0.1-3.3-2.9-2.8-4.9-3.6c3-0.3,6.1-0.4,8.9-2
	C224.5,114.8,222.6,116.8,223.3,119.1z"/>
<path class="st6" d="M124.6,114.5c-1.5,0.9-3.6,0.3-4.9,1.8c-0.7,0.4-1.4,0.8-2.1,1.1c-1.5-0.9-2.2-2.2-1.7-3.9
	C118.8,113.8,121.7,114.2,124.6,114.5z"/>
<path class="st0" d="M177,135.8c0.1,2.5-0.3,5.1,0.1,7.6c0.6,5.7-0.4,10.3-5.2,14.2c-3.9,3.1-3.1,5.3,1.6,7.1
	c1.5,0.6,3.1,0.9,4.5,1.4c8.1,3,9.5,10.5,3.2,16.4c-1.1,1.1-2.6,1.9-3.9,2.8c-1.8,3.5-5.3,5.6-7.2,9.1c-0.5,0.9-1.5,1.3-2.6,1.1
	c0.1-0.2,0.1-0.4,0.1-0.6c-1.7-4.2-0.9-8.6-0.8-12.9l0,0c0-0.8,0-1.5,0-2.3c0.1-0.1,0.1-0.1,0.3-0.2l0,0c2.5-2.2,3.7-4.6,0.9-7.3
	c-2.2-2.1-4.7-1.6-6.7,0.5c-2.2,2.4-0.9,4.7,0.8,6.7l0.3,1.7c0.4,3.6,0.2,7.3,1.4,10.8c0.1,1.3,0.1,2.6,0.9,3.7l0.3,1.9l0,0
	l-5.6-5.6c-0.1-0.3-0.2-0.6-0.4-0.9c-0.1-0.2-0.4-0.4-0.5-0.6c-2.4-3-5.6-5.2-8.8-7.4c-3.4-2.2-5.9-5-5-9.4c0.9-4.5,4.1-7,8.3-8.3
	c0.4-0.1,0.9-0.2,1.4-0.3c2.2-0.4,4.5-1,5.3-3.4c0.9-2.7-1.1-4.4-2.9-6c-0.6-0.5-1.1-1.1-1.7-1.7c-1.5-5.5-0.5-11-0.6-16.5
	c0-3.7,1.9-7.8-1.3-11.3c-4.1-4.7-5.7-10-3.9-16.1l0,0l0,0c2.4-2.2,1.5-5.2,2.1-7.9l0,0c1.5-1.6,3.1-3.1,4.8-4.4l0.1,0.1
	c1.1,0.6,2.2,1.2,3.2,1.9c0.6,0.3,1.1,0.6,1.7,0.9c0.4,0.2,1,0.5,1.3,0.9c0.3,0.4,0.3,1.1,0.4,1.5c0.1,0.6,0.2,1.3,0.3,1.9
	c0.2,1.2,0.4,2.4,0.6,3.7c0.1,0.4,0.7,0.2,0.6-0.1c-0.2-1.3-0.4-2.7-0.6-3.9c-0.1-0.6-0.2-1.3-0.3-1.9c-0.1-0.5-0.1-1.1-0.4-1.5
	c-0.3-0.4-0.8-0.6-1.3-0.9c-0.6-0.3-1.1-0.6-1.7-0.9c-1.1-0.6-2.2-1.2-3.3-1.9c2.4-1.9,5.1-3.4,7.8-4.6c1.7,0.8,3.5,1.7,4.8,3
	c1.7,1.9,1.9,4.3,2.2,6.7c0.2,1.6,0.4,3.1,0.6,4.7c0.1,0.4,0.7,0.4,0.6,0c-0.1-1.4-0.4-2.9-0.5-4.4c-0.1-1.3-0.3-2.7-0.6-3.9
	c-0.3-1.1-0.8-2.2-1.5-3.2c-0.7-0.9-1.6-1.5-2.5-2.1c-0.7-0.4-1.5-0.9-2.3-1.1l0.1-0.1c3.1-1.2,7.2-0.9,10.9-1.7
	c2-0.5,2.7,2.2,4.4,3.6c0.9,2.3,1.8,4.6,2.4,7c0.3,0.9,0.4,1.9,0.9,2.9c0.2,0.4,0.5,0.7,0.9,0.9c0.4,0.3,1,0.4,1.4,0.7
	c0.3,0.3,0.8-0.1,0.4-0.4c-0.4-0.4-0.9-0.4-1.3-0.7c-0.4-0.2-0.7-0.6-0.9-0.9c-0.5-0.9-0.6-2-0.9-2.9c-0.6-2.3-1.4-4.5-2.4-6.7
	c0.4-1.1,0.8-2.1,1.2-3c0.9-1.9,2.4-2.9,4.4-3.1c2.2-0.1,2.8,1.7,3.6,3.2c1.5,3.1,2,6.7,4.9,9.1c0.4,3.4-2.2,5.8-2.9,8.8
	c-1.1,9.5-5.5,17.1-13.4,22.6C177.4,132.4,176.9,133.9,177,135.8z"/>
<path class="st7" d="M113.5,197.2h-3.2l-26.2,29.2h73.3c0,0,0.4-3.2,2.6-4.2c2.2-0.9,5.2-2.2,5.2-2.2s1.7-0.8,6,2.2
	c4.4,3,3.2,4.2,3.2,4.2l72-1.1l-23.1-28.1h-5.7l15.5,22c0,0-17.6-6.2-36.2-6.2s-30,5.7-30,5.7h-3.2c0,0-10-5.2-29.8-5.1
	c-19.8,0.1-36,5.1-36,5.1L113.5,197.2z"/>
<path class="st8" d="M117.8,190.8l-20.2,27.6c0,0,15.5-5,36.2-4.8c19.5,0.1,30.5,5.6,30.5,5.6v-24.1c0,0-7.5-5.5-19.4-6.2
	C132.8,188.1,117.8,190.8,117.8,190.8z"/>
<path class="st9" d="M117.8,190.8l-0.2-0.1L96.8,219l0.8-0.3c0,0,0.2-0.1,0.6-0.2c3.2-0.9,16.8-4.6,34.4-4.6c0.4,0,0.6,0,1,0
	c9.8,0.1,17.4,1.4,22.5,2.9c2.6,0.7,4.5,1.4,5.9,1.9c0.6,0.3,1.1,0.4,1.5,0.6c0.1,0.1,0.3,0.1,0.4,0.1c0.1,0.1,0.1,0.1,0.1,0.1
	l0.4,0.2V195l-0.1-0.1c0,0-7.5-5.5-19.6-6.2c-1.5-0.1-3.2-0.1-4.7-0.1c-10.9,0-22.3,2.1-22.3,2.1h-0.1l-0.1,0.1L117.8,190.8l0.1,0.3
	c0,0,0.7-0.1,1.9-0.3c3.7-0.6,12.1-1.7,20.2-1.7c1.6,0,3.2,0.1,4.7,0.1c6,0.4,10.8,1.9,14.1,3.4c1.7,0.7,2.9,1.4,3.9,1.9
	c0.4,0.3,0.8,0.5,1,0.6c0.1,0.1,0.2,0.1,0.3,0.1l0.1,0.1l0.1-0.2h-0.3v24.1h0.3l0.1-0.2c0,0-11.1-5.5-30.6-5.6c-0.4,0-0.6,0-1,0
	c-20.3,0-35.3,4.8-35.3,4.8l0.1,0.3l0.2,0.1l20.2-27.6L117.8,190.8l0.1,0.3L117.8,190.8z"/>
<path class="st8" d="M213.1,190.8l20.2,27.6c0,0-15.5-5-36.2-4.8c-19.5,0.1-30.5,5.6-30.5,5.6v-24.1c0,0,7.5-5.5,19.4-6.2
	C198.1,188.1,213.1,190.8,213.1,190.8z"/>
<path class="st9" d="M213.1,190.8l-0.2,0.1l20.2,27.6l0.2-0.1l0.1-0.3c0,0-15-4.8-35.3-4.8c-0.4,0-0.6,0-1,0
	c-19.6,0.1-30.6,5.6-30.6,5.6l0.1,0.2h0.3v-24.1h-0.3l0.1,0.2l0.1-0.1c0.9-0.6,8.1-5.4,19.2-6.1c1.5-0.1,3.1-0.1,4.7-0.1
	c5.4,0,11,0.5,15.1,1c2.1,0.3,3.9,0.5,5.1,0.7s1.9,0.3,1.9,0.3L213.1,190.8l-0.2,0.1L213.1,190.8l0.1-0.3c0,0-11.4-2.1-22.3-2.1
	c-1.6,0-3.2,0.1-4.7,0.1c-12.1,0.8-19.6,6.2-19.6,6.2l-0.1,0.1v24.7l0.4-0.2c0,0,0.1,0,0.1-0.1c1.2-0.6,12-5.4,30.2-5.5
	c0.4,0,0.6,0,1,0c10.1,0,18.9,1.2,25.2,2.4c3.2,0.6,5.6,1.2,7.3,1.7c0.9,0.2,1.5,0.4,1.9,0.6s0.6,0.2,0.6,0.2l0.8,0.3l-20.8-28.3
	h-0.1L213.1,190.8z"/>
<path class="st10" d="M30.5,121.3c0.9-2.6,1.4-3.8,2.3-6.4c0.5-1.4,1.3-2.3,2.2-2.8c0.9-0.4,2-0.4,3.2,0c1.3,0.5,2.1,1.2,2.5,2.2
	c0.4,1,0.3,2.3-0.2,3.9c-0.3,0.8-0.5,1.3-0.8,2.1c1.8,0.7,2.7,1,4.5,1.7c-0.6,1.5-0.8,2.3-1.4,3.9C37.9,124.1,35.4,123.1,30.5,121.3
	z M37.1,119.4c0.1-0.3,0.2-0.6,0.3-1c0.3-0.8,0.3-1.3,0.2-1.7s-0.4-0.7-0.8-0.8s-0.8-0.1-1.1,0s-0.7,0.6-1,1.3
	c-0.1,0.4-0.2,0.6-0.4,1.1C35.5,118.7,36,118.9,37.1,119.4z"/>
<path class="st10" d="M49.2,105c-0.8,1.7-1.3,2.5-2.1,4.2c0.7,0.6,1,1,1.7,1.6c-0.8,1.5-1.1,2.2-1.9,3.8c-3.8-4.2-5.7-6.3-9.6-10.5
	c0.8-1.6,1.2-2.4,2-4c5.7,0.6,8.4,0.9,14.1,1.5c-0.8,1.5-1.2,2.3-2,3.8C50.6,105.3,50.1,105.2,49.2,105z M46.3,104.5
	c-2-0.3-2.9-0.5-4.9-0.8c1.5,1.4,2.2,2.1,3.6,3.4C45.5,106.1,45.7,105.5,46.3,104.5z"/>
<path class="st10" d="M54.9,99.2c-4.4-3-6.6-4.5-11-7.4c1.5-2.3,2.3-3.4,3.8-5.7c0.7-1,1.3-1.8,1.9-2.2c0.6-0.4,1.2-0.7,2-0.7
	c0.7,0,1.5,0.2,2.2,0.7c0.6,0.4,1,0.9,1.3,1.5c0.3,0.6,0.4,1.2,0.3,1.8c0,0.4-0.1,0.9-0.3,1.5c0.4-0.3,0.8-0.5,1-0.6
	c0.2-0.1,0.5-0.1,1-0.1c0.5-0.1,0.8-0.1,1,0c1.7,0.2,2.6,0.3,4.3,0.5c-1,1.5-1.5,2.3-2.6,3.8c-1.8-0.2-2.8-0.3-4.6-0.4
	c-0.6-0.1-1-0.1-1.3,0.1c-0.3,0.1-0.6,0.3-0.8,0.7c-0.1,0.1-0.1,0.2-0.2,0.3c1.8,1.2,2.7,1.8,4.5,3C56.3,97.1,55.9,97.8,54.9,99.2z
	 M50.6,91.3c0.4-0.6,0.6-0.8,1-1.5c0.1-0.1,0.3-0.5,0.5-1c0.1-0.3,0.1-0.5,0-0.8c-0.1-0.3-0.3-0.5-0.5-0.6c-0.3-0.2-0.7-0.3-1-0.2
	c-0.3,0.1-0.7,0.5-1.1,1.1s-0.6,0.9-1,1.5C49.3,90.4,49.7,90.7,50.6,91.3z"/>
<path class="st10" d="M67.8,78.5c-1.3,1.4-1.9,2.1-3.1,3.5c0.5,0.8,0.8,1.2,1.3,2c-1.1,1.3-1.7,1.9-2.8,3.1c-2.7-5-4-7.5-6.8-12.6
	c1.2-1.3,1.8-2,3-3.4c5.4,2,8,3,13.4,5c-1.1,1.3-1.7,2-2.9,3.2C69.1,79,68.6,78.9,67.8,78.5z M65.1,77.2c-1.8-0.8-2.8-1.3-4.6-2
	c1,1.7,1.6,2.6,2.7,4.3C63.9,78.5,64.3,78.1,65.1,77.2z"/>
<path class="st10" d="M65.9,64.4c1.3-1.1,1.9-1.7,3.1-2.8c2.7,3,4,4.5,6.8,7.5c2-1.7,2.9-2.6,4.8-4.3c0.9,1,1.3,1.5,2.2,2.4
	c-3.2,2.8-4.7,4.2-8,7C71.3,70.3,69.5,68.3,65.9,64.4z"/>
<path class="st10" d="M77.7,54.2c3.6-2.6,5.5-3.8,9.1-6.4c0.7,0.9,1,1.4,1.7,2.3c-2.3,1.6-3.4,2.4-5.7,4c0.5,0.7,0.8,1,1.3,1.7
	c2.1-1.5,3.2-2.2,5.3-3.7c0.6,0.9,1,1.3,1.6,2.2c-2.2,1.5-3.2,2.2-5.3,3.7c0.6,0.8,0.9,1.3,1.5,2.2c2.4-1.7,3.6-2.4,5.9-4.1
	c0.7,1,1,1.5,1.7,2.5c-3.8,2.6-5.6,3.9-9.3,6.5C82.4,60.8,80.8,58.6,77.7,54.2z"/>
<path class="st10" d="M101.7,49.3c-0.6-1-0.8-1.5-1.3-2.4c2.3-1.2,3.4-1.8,5.7-3c1,2,1.6,3,2.7,5c-0.7,1.3-1.4,2.3-2.1,3
	s-1.6,1.3-2.8,2c-1.4,0.8-2.7,1.1-3.8,1.1s-2.2-0.3-3.2-1c-1-0.7-1.8-1.7-2.5-2.9c-0.7-1.3-1-2.6-1-3.8c0-1.3,0.4-2.4,1.2-3.4
	c0.6-0.8,1.6-1.6,3-2.3c1.3-0.7,2.4-1.1,3.2-1.2c0.8-0.1,1.5,0,2.2,0.3c0.7,0.3,1.4,0.7,2,1.4c-1.3,1-2,1.5-3.3,2.5
	c-0.4-0.3-0.8-0.6-1.3-0.6c-0.5-0.1-1,0.1-1.5,0.3c-0.8,0.4-1.3,1-1.5,1.8c-0.2,0.8,0.1,1.8,0.7,3c0.7,1.3,1.4,2.1,2.2,2.4
	c0.8,0.3,1.6,0.2,2.5-0.2c0.4-0.2,0.8-0.5,1.1-0.8c0.3-0.3,0.6-0.8,1-1.3c-0.2-0.4-0.3-0.7-0.6-1.1
	C103.2,48.5,102.8,48.7,101.7,49.3z"/>
<path class="st10" d="M120.5,44.1c-1.8,0.6-2.7,1-4.5,1.6c0.1,0.9,0.1,1.4,0.1,2.3c-1.6,0.6-2.4,0.9-4,1.5c0-5.7,0.1-8.6,0.1-14.3
	c1.7-0.6,2.6-0.9,4.3-1.5c3.8,4.3,5.7,6.5,9.5,10.8c-1.7,0.6-2.5,0.9-4.1,1.5C121.3,45.2,121,44.9,120.5,44.1z M118.7,41.7
	c-1.3-1.6-1.9-2.4-3.1-4c0.1,2,0.2,3,0.3,5C117,42.3,117.6,42.1,118.7,41.7z"/>
<path class="st10" d="M125.7,30.8c1.7-0.4,2.4-0.6,4.1-1c1,3.9,1.4,5.9,2.4,9.8c2.6-0.6,3.8-0.9,6.4-1.5c0.3,1.3,0.5,2,0.8,3.2
	c-4.2,1-6.3,1.5-10.5,2.4C127.5,38.6,126.9,36,125.7,30.8z"/>
<path class="st10" d="M141.4,36.5c1.6-0.3,2.4-0.4,4-0.7c0.1,0.6,0.4,1.1,0.7,1.4c0.5,0.5,1.1,0.7,2,0.6c0.6-0.1,1-0.3,1.3-0.6
	s0.4-0.6,0.3-1s-0.2-0.6-0.6-0.9c-0.3-0.2-1.1-0.4-2.2-0.6c-1.9-0.2-3.3-0.6-4.1-1.2c-0.8-0.6-1.4-1.4-1.5-2.4
	c-0.1-0.7,0.1-1.3,0.3-2c0.3-0.6,0.9-1.2,1.7-1.6c0.8-0.4,1.9-0.8,3.3-0.9c1.7-0.2,3.1,0,4.1,0.5c1,0.5,1.7,1.5,2,2.9
	c-1.6,0.3-2.4,0.4-3.9,0.6c-0.1-0.6-0.4-1-0.8-1.3c-0.3-0.2-0.8-0.3-1.5-0.3c-0.5,0.1-0.8,0.2-1,0.4c-0.2,0.2-0.3,0.5-0.3,0.8
	c0,0.2,0.1,0.4,0.3,0.6c0.2,0.1,0.7,0.3,1.5,0.3c1.9,0.2,3.2,0.4,4,0.8c0.8,0.3,1.5,0.8,1.9,1.3c0.4,0.6,0.7,1.2,0.8,1.9
	c0.1,0.8-0.1,1.7-0.5,2.4c-0.4,0.8-1,1.4-1.8,1.9s-1.9,0.8-3.2,0.9c-2.3,0.3-3.9,0-5-0.8C142.3,38.9,141.7,37.8,141.4,36.5z"/>
<path class="st10" d="M174.4,37.8c-1.9-0.1-2.9-0.2-4.7-0.3c-0.3,0.8-0.5,1.3-0.8,2.2c-1.7-0.1-2.6-0.2-4.3-0.3
	c2.4-5.2,3.7-7.7,6.1-12.9c1.8,0.1,2.8,0.2,4.6,0.3c1.6,5.5,2.4,8.2,4,13.7c-1.7-0.1-2.7-0.2-4.4-0.3
	C174.7,39.2,174.6,38.7,174.4,37.8z M173.8,34.8c-0.4-2-0.7-2.9-1.1-4.9c-0.8,1.9-1.1,2.8-1.9,4.7C172,34.7,172.6,34.8,173.8,34.8z"
	/>
<path class="st10" d="M182.3,36.4c1.6,0.2,2.4,0.3,4,0.6c-0.1,0.6,0,1.2,0.2,1.5c0.3,0.6,0.8,1,1.7,1.2c0.6,0.1,1,0.1,1.5-0.1
	c0.3-0.2,0.6-0.5,0.7-0.8c0.1-0.3,0-0.7-0.3-1c-0.3-0.3-0.9-0.7-2-1.2c-1.7-0.8-2.9-1.5-3.6-2.4c-0.6-0.8-0.8-1.7-0.6-2.8
	c0.1-0.7,0.5-1.3,1-1.8c0.6-0.5,1.3-0.8,2.1-1c0.9-0.2,2-0.1,3.4,0.1c1.7,0.3,2.9,0.9,3.7,1.7c0.8,0.8,1.1,1.9,1,3.3
	c-1.6-0.2-2.4-0.3-3.9-0.6c0-0.6-0.1-1.1-0.3-1.4c-0.3-0.3-0.7-0.6-1.3-0.7c-0.5-0.1-0.8-0.1-1.1,0.1c-0.3,0.1-0.5,0.3-0.5,0.6
	c-0.1,0.2,0,0.4,0.2,0.6c0.1,0.2,0.6,0.5,1.3,0.8c1.7,0.8,2.9,1.4,3.6,2c0.7,0.6,1.2,1.1,1.4,1.8c0.2,0.6,0.3,1.3,0.1,2
	c-0.2,0.8-0.6,1.5-1.2,2.2c-0.6,0.6-1.4,1-2.3,1.2c-0.9,0.2-2,0.1-3.3-0.1c-2.2-0.5-3.8-1.2-4.5-2.2C182.5,39,182.2,37.8,182.3,36.4
	z"/>
<path class="st10" d="M197.7,39.8c1.5,0.4,2.3,0.6,3.8,1c-0.1,0.6-0.1,1.1,0,1.5c0.2,0.6,0.8,1.1,1.5,1.3c0.6,0.2,1,0.2,1.5,0.1
	c0.4-0.1,0.6-0.4,0.8-0.8c0.1-0.3,0.1-0.7-0.1-1c-0.2-0.3-0.8-0.8-1.8-1.4c-1.6-1-2.7-1.9-3.2-2.8c-0.6-0.9-0.6-1.8-0.3-2.8
	c0.2-0.6,0.6-1.2,1.2-1.7c0.6-0.4,1.3-0.7,2.2-0.8c0.9-0.1,2,0.1,3.3,0.6c1.7,0.6,2.8,1.3,3.5,2.2c0.6,0.9,0.8,2,0.6,3.4
	c-1.5-0.4-2.3-0.6-3.8-1c0.1-0.6,0-1.1-0.2-1.5s-0.6-0.6-1.2-0.8c-0.5-0.1-0.8-0.2-1.1-0.1s-0.5,0.3-0.6,0.6c-0.1,0.2,0,0.4,0.1,0.6
	c0.1,0.2,0.6,0.6,1.2,0.9c1.6,1,2.7,1.7,3.3,2.4c0.6,0.6,1,1.3,1.2,2c0.1,0.7,0.1,1.3-0.1,2c-0.3,0.8-0.8,1.5-1.5,2
	c-0.7,0.6-1.5,0.8-2.4,0.9c-0.9,0.1-2-0.1-3.3-0.5c-2.2-0.7-3.6-1.7-4.1-2.7C197.5,42.3,197.4,41.1,197.7,39.8z"/>
<path class="st10" d="M213.8,42.9c1-2,2.3-3.2,3.9-3.8c1.7-0.6,3.5-0.3,5.4,0.6c2,1,3.3,2.3,3.9,3.9c0.6,1.6,0.3,3.3-0.6,5.3
	c-0.7,1.4-1.5,2.4-2.4,3.1c-0.9,0.7-2,1-3.1,1.1s-2.4-0.2-3.8-0.9c-1.4-0.6-2.4-1.4-3.1-2.3c-0.7-0.8-1.1-1.9-1.2-3.1
	C212.8,45.7,213.1,44.4,213.8,42.9z M217.6,44.8c-0.6,1.2-0.8,2.2-0.6,2.9c0.2,0.8,0.7,1.3,1.5,1.7c0.8,0.4,1.5,0.4,2.2,0.1
	s1.4-1.1,2-2.4c0.6-1.1,0.8-2.1,0.6-2.8c-0.2-0.8-0.7-1.3-1.5-1.7c-0.8-0.3-1.5-0.4-2.2-0.1C218.9,42.8,218.2,43.6,217.6,44.8z"/>
<path class="st10" d="M237.2,57.3c1,1.2,1.5,1.7,2.4,2.9c-0.8,0.7-1.6,1.2-2.4,1.5s-1.7,0.3-2.5,0.2c-0.8-0.1-1.7-0.6-2.8-1.2
	c-1.3-0.8-2.1-1.6-2.7-2.5c-0.6-0.8-0.8-1.9-0.8-3.1s0.5-2.6,1.4-4c1.3-1.8,2.7-2.9,4.3-3.3c1.7-0.3,3.4,0.1,5.2,1.3
	c1.4,0.9,2.4,2,2.8,3.1c0.4,1.1,0.4,2.4,0.1,3.8c-1.4-0.6-2.1-0.8-3.6-1.3c0.1-0.4,0.2-0.7,0.1-1c0-0.4-0.1-0.8-0.3-1
	c-0.1-0.3-0.4-0.6-0.8-0.8c-0.8-0.5-1.6-0.6-2.4-0.3c-0.6,0.3-1.3,0.9-2,1.9c-0.8,1.3-1.2,2.2-1.1,2.9s0.4,1.3,1.1,1.7
	c0.7,0.4,1.3,0.6,1.9,0.4C236.1,58.3,236.6,57.9,237.2,57.3z"/>
<path class="st10" d="M248.7,55.9c1.3,1,2,1.6,3.2,2.7c-3.4,4.1-5.2,6.1-8.6,10.3c-1.3-1-2-1.6-3.2-2.7
	C243.5,62.1,245.3,60,248.7,55.9z"/>
<path class="st10" d="M254.3,76.1c-1.3-1.3-2-2-3.3-3.3c-0.8,0.4-1.2,0.6-2,1.1c-1.2-1.2-1.8-1.8-3-3c5.2-2.4,7.8-3.6,13.1-5.9
	c1.3,1.3,1.9,2,3.2,3.2c-2.4,5.2-3.6,7.7-6,13c-1.2-1.3-1.8-1.8-3.1-3.1C253.6,77.3,253.8,76.9,254.3,76.1z M255.7,73.4
	c1-1.7,1.4-2.7,2.4-4.4c-1.8,0.9-2.7,1.4-4.5,2.4C254.5,72.2,254.9,72.6,255.7,73.4z"/>
<path class="st10" d="M267.1,73.4c3.1,4,4.7,5.9,7.7,9.9c-1,0.8-1.5,1.2-2.6,2c-1-1.3-1.5-2-2.6-3.3c-3.1,2.5-4.7,3.7-7.9,6.2
	c-1-1.3-1.5-2-2.6-3.2c3.1-2.5,4.7-3.8,7.9-6.2c-1-1.3-1.5-2-2.7-3.3C265.5,74.5,266.1,74.2,267.1,73.4z"/>
<path class="st10" d="M277.5,87.3c0.9,1.4,1.3,2.1,2.2,3.5c-4.5,2.9-6.7,4.3-11.2,7.3c-0.9-1.4-1.3-2.1-2.2-3.5
	C270.8,91.6,273,90.2,277.5,87.3z"/>
<path class="st10" d="M276.7,98.3c2-1,3.7-1.2,5.3-0.7c1.6,0.6,2.9,1.7,3.9,3.7s1.3,3.8,0.7,5.4c-0.5,1.6-1.7,2.9-3.6,3.8
	c-1.4,0.7-2.7,1-3.8,1c-1.1,0-2.2-0.3-3.1-1c-0.9-0.6-1.7-1.6-2.4-2.9c-0.7-1.3-1-2.6-1-3.6c0-1.1,0.3-2.2,0.9-3.2
	C274.3,99.9,275.3,99,276.7,98.3z M278.5,102c-1.2,0.6-2,1.3-2.2,2c-0.3,0.7-0.3,1.5,0.1,2.2c0.4,0.8,1,1.3,1.7,1.5
	c0.7,0.1,1.7-0.1,3.1-0.8c1.1-0.6,1.8-1.2,2.1-2c0.3-0.7,0.2-1.5-0.1-2.2c-0.3-0.8-0.9-1.2-1.7-1.4
	C280.7,101.2,279.7,101.4,278.5,102z"/>
<path class="st10" d="M290.8,112.7c0.5,1.5,0.8,2.2,1.3,3.6c-2.1,2.9-3.1,4.3-5.2,7.2c2.7-1,4.1-1.5,6.8-2.4
	c0.5,1.5,0.8,2.2,1.3,3.7c-5,1.7-7.5,2.7-12.4,4.4c-0.5-1.5-0.8-2.2-1.3-3.7c2.1-2.9,3.1-4.3,5.2-7.2c-2.7,1-4.1,1.5-6.8,2.4
	c-0.5-1.5-0.8-2.2-1.3-3.6C283.4,115.3,285.9,114.5,290.8,112.7z"/>
<text transform="matrix(0.989 0.1482 -0.1482 0.989 130.9457 296.8583)" class="st10 st11 st12">P</text>
<text transform="matrix(0.9979 6.501579e-02 -6.501579e-02 0.9979 145.2159 298.9956)" class="st10 st11 st13">A</text>
<text transform="matrix(0.9987 -5.186269e-02 5.186269e-02 0.9987 162.5428 299.9731)" class="st10 st11 st12">S</text>
<text transform="matrix(0.9783 -0.2074 0.2074 0.9783 179.1582 298.9398)" class="st10 st11 st12">S</text>
<g>
	<g>
		<path class="st14" d="M327.5,79.6h47.7c12.2,0,21.7,3.3,28.6,10c6.9,6.7,10.3,15.7,10.3,27.2c0,11.5-3.5,20.6-10.3,27.2
			c-6.9,6.7-16.4,10-28.6,10H356v32.4h-28.6V79.6z M356,128.8h17c4,0,7.1-1,9.4-3.1c2.2-2,3.4-5,3.4-8.9s-1.1-6.9-3.4-8.9
			c-2.2-2-5.4-3.1-9.4-3.1h-17V128.8z"/>
		<path class="st14" d="M524,186.4h-30.3l-4.3-14h-39.8l-4.3,14h-29.1l36.1-106.8h34.3L524,186.4z M464.5,123.1l-7.4,24.6h24.7
			l-7.6-24.6c-2.7-8.6-4.3-14.3-4.9-17C467,114.5,465.4,120.1,464.5,123.1z"/>
		<path class="st14" d="M570.8,188.8c-14.6,0-25.8-3.3-33.6-10.1c-7.9-6.7-11.8-15.8-11.8-27.4h27.4c0.1,5.6,1.7,9.4,4.7,11.5
			c3,2.1,7.9,3.1,14.4,3.1c9.5,0,14.3-3.2,14.3-9.6c0-3-1.1-5.2-3.3-6.6c-2.2-1.4-6.4-2.6-12.7-3.8l-8-1.4
			c-23.5-4-35.3-15.5-35.3-34.5c0-10.1,3.6-18.1,10.8-24.1c7.2-5.9,17.5-8.9,30.9-8.9c13.5,0,24,3,31.4,8.9c7.4,6,11.4,14.7,12,26.3
			h-26.8c-0.2-4.3-1.6-7.4-4.1-9.4c-2.6-2-6.6-3-12-3c-8.7,0-13,3-13,8.9c0,3,1.1,5.3,3.3,6.8c2.2,1.5,6,2.8,11.6,3.8l8.4,1.5
			c12.7,2.2,21.9,5.9,27.6,11.2c5.8,5.3,8.6,12.6,8.6,22.1c0,11.3-4,19.9-11.8,25.8C595.9,185.9,584.9,188.8,570.8,188.8z"/>
		<path class="st14" d="M665.3,188.8c-14.6,0-25.8-3.3-33.6-10.1c-7.9-6.7-11.8-15.8-11.8-27.4h27.4c0.1,5.6,1.7,9.4,4.7,11.5
			c3,2.1,7.9,3.1,14.4,3.1c9.5,0,14.3-3.2,14.3-9.6c0-3-1.1-5.2-3.3-6.6c-2.2-1.4-6.4-2.6-12.7-3.8l-8-1.4
			c-23.5-4-35.3-15.5-35.3-34.5c0-10.1,3.6-18.1,10.8-24.1c7.2-5.9,17.5-8.9,30.9-8.9c13.5,0,24,3,31.4,8.9c7.4,6,11.4,14.7,12,26.3
			h-26.8c-0.2-4.3-1.6-7.4-4.1-9.4c-2.6-2-6.6-3-12-3c-8.7,0-13,3-13,8.9c0,3,1.1,5.3,3.3,6.8c2.2,1.5,6,2.8,11.6,3.8l8.4,1.5
			c12.7,2.2,21.9,5.9,27.6,11.2c5.8,5.3,8.6,12.6,8.6,22.1c0,11.3-4,19.9-11.8,25.8C690.4,185.9,679.4,188.8,665.3,188.8z"/>
	</g>
</g>
<g>
	<g>
		<path class="st15" d="M330.4,198.1h14.1c3.6,0,6.4,1,8.4,2.9c2,2,3.1,4.6,3.1,8c0,3.4-1,6-3.1,8s-4.8,2.9-8.4,2.9h-5.6v9.5h-8.4
			V198.1z M338.8,212.5h5c1.2,0,2.1-0.3,2.8-0.9c0.7-0.6,1-1.5,1-2.6s-0.3-2-1-2.6c-0.7-0.6-1.6-0.9-2.8-0.9h-5V212.5z"/>
		<path class="st15" d="M387.3,229.4h-8.9l-1.3-4.1h-11.7l-1.3,4.1h-8.6l10.6-31.3h10.1L387.3,229.4z M369.8,210.8l-2.2,7.2h7.3
			l-2.2-7.2c-0.8-2.5-1.3-4.2-1.4-5C370.5,208.3,370,210,369.8,210.8z"/>
		<path class="st15" d="M413.5,222.1l0.2,4.2c0.1,1.3,0.3,2.3,0.8,3.2h-8.7c-0.3-0.7-0.5-1.7-0.6-3.2l-0.1-3.6
			c-0.1-1.6-0.4-2.7-1-3.2c-0.6-0.6-1.6-0.9-3-0.9h-4.4v10.8h-8.4v-31.3h14.7c3.8,0,6.6,0.9,8.5,2.6c1.8,1.8,2.7,4,2.7,6.7
			c0,1.6-0.4,3.1-1.2,4.4c-0.8,1.3-2,2.3-3.5,3c1.5,0.6,2.6,1.4,3.1,2.6C413,218.4,413.4,220,413.5,222.1z M396.6,205v7.2h5
			c2.5,0,3.7-1.2,3.7-3.6c0-2.4-1.2-3.6-3.7-3.6H396.6z"/>
		<path class="st15" d="M445.5,229.4h-8.9l-1.3-4.1h-11.7l-1.3,4.1h-8.6l10.6-31.3h10.1L445.5,229.4z M428,210.8l-2.2,7.2h7.3
			l-2.2-7.2c-0.8-2.5-1.3-4.2-1.4-5C428.7,208.3,428.2,210,428,210.8z"/>
		<path class="st15" d="M454.8,198.1v23.5H468v7.8h-21.7v-31.3H454.8z"/>
		<path class="st15" d="M493.1,198.1v7.8h-15.2v4.1h13.9v7.3h-13.9v4.2h15.2v7.8h-23.6v-31.3H493.1z"/>
		<path class="st15" d="M510.5,218.2v-6.7h14.2v18h-5.7l-0.8-4.1c-0.9,1.6-2.2,2.7-4,3.6c-1.7,0.8-3.6,1.2-5.7,1.2
			c-4.4,0-7.9-1.5-10.5-4.4c-2.6-2.9-4-6.9-4-11.9s1.4-9,4.1-12c2.7-2.9,6.5-4.4,11.4-4.4c4.1,0,7.4,1,10.1,3
			c2.7,2.1,4.3,4.8,4.7,8.4h-8.6c-0.9-2.6-2.9-3.9-6.1-3.9c-2.2,0-3.8,0.8-5,2.3c-1.2,1.6-1.8,3.7-1.8,6.5c0,2.8,0.6,5,1.9,6.5
			c1.3,1.6,3.1,2.3,5.4,2.3c1.5,0,2.8-0.4,3.8-1.2c1.1-0.8,1.8-1.9,2.1-3.2H510.5z"/>
		<path class="st15" d="M556.8,229.4h-8.9l-1.3-4.1h-11.7l-1.3,4.1h-8.6l10.6-31.3h10.1L556.8,229.4z M539.3,210.8l-2.2,7.2h7.3
			l-2.2-7.2c-0.8-2.5-1.3-4.2-1.4-5C540,208.3,539.5,210,539.3,210.8z"/>
		<path class="st15" d="M566.1,198.1v23.5h13.3v7.8h-21.7v-31.3H566.1z"/>
		<path class="st15" d="M592.7,230.1c-4.3,0-7.6-1-9.9-2.9c-2.3-2-3.5-4.6-3.5-8.1h8.1c0,1.6,0.5,2.8,1.4,3.4s2.3,0.9,4.2,0.9
			c2.8,0,4.2-0.9,4.2-2.8c0-0.9-0.3-1.5-1-1.9c-0.6-0.4-1.9-0.8-3.7-1.1l-2.4-0.4c-6.9-1.2-10.4-4.5-10.4-10.1c0-3,1.1-5.3,3.2-7.1
			c2.1-1.7,5.2-2.6,9.1-2.6c4,0,7.1,0.9,9.3,2.6c2.2,1.7,3.4,4.3,3.5,7.7H597c-0.1-1.3-0.5-2.2-1.2-2.8s-1.9-0.9-3.5-0.9
			c-2.6,0-3.8,0.9-3.8,2.6c0,0.9,0.3,1.5,1,2c0.6,0.4,1.8,0.8,3.4,1.1l2.5,0.4c3.7,0.6,6.4,1.7,8.1,3.3c1.7,1.5,2.5,3.7,2.5,6.5
			c0,3.3-1.2,5.8-3.5,7.6S596.9,230.1,592.7,230.1z"/>
		<path class="st15" d="M610,200h5.3l-4.1,12.1h-4.5L610,200z"/>
		<path class="st15" d="M651.1,229.4h-8.9l-1.3-4.1h-11.7l-1.3,4.1h-8.6l10.6-31.3h10.1L651.1,229.4z M633.6,210.8l-2.2,7.2h7.3
			l-2.2-7.2c-0.8-2.5-1.3-4.2-1.4-5C634.3,208.3,633.8,210,633.6,210.8z"/>
		<path class="st15" d="M663.9,230.1c-4.3,0-7.6-1-9.9-2.9c-2.3-2-3.5-4.6-3.5-8.1h8.1c0,1.6,0.5,2.8,1.4,3.4s2.3,0.9,4.2,0.9
			c2.8,0,4.2-0.9,4.2-2.8c0-0.9-0.3-1.5-1-1.9c-0.6-0.4-1.9-0.8-3.7-1.1l-2.4-0.4c-6.9-1.2-10.4-4.5-10.4-10.1c0-3,1.1-5.3,3.2-7.1
			c2.1-1.7,5.2-2.6,9.1-2.6c4,0,7.1,0.9,9.3,2.6c2.2,1.7,3.4,4.3,3.5,7.7h-7.9c-0.1-1.3-0.5-2.2-1.2-2.8s-1.9-0.9-3.5-0.9
			c-2.6,0-3.8,0.9-3.8,2.6c0,0.9,0.3,1.5,1,2c0.6,0.4,1.8,0.8,3.4,1.1l2.5,0.4c3.7,0.6,6.4,1.7,8.1,3.3c1.7,1.5,2.5,3.7,2.5,6.5
			c0,3.3-1.2,5.8-3.5,7.6S668,230.1,663.9,230.1z"/>
		<path class="st15" d="M690.7,230.1c-4.3,0-7.6-1-9.9-2.9c-2.3-2-3.5-4.6-3.5-8.1h8.1c0,1.6,0.5,2.8,1.4,3.4s2.3,0.9,4.2,0.9
			c2.8,0,4.2-0.9,4.2-2.8c0-0.9-0.3-1.5-1-1.9c-0.6-0.4-1.9-0.8-3.7-1.1l-2.4-0.4c-6.9-1.2-10.4-4.5-10.4-10.1c0-3,1.1-5.3,3.2-7.1
			c2.1-1.7,5.2-2.6,9.1-2.6c4,0,7.1,0.9,9.3,2.6c2.2,1.7,3.4,4.3,3.5,7.7h-7.9c-0.1-1.3-0.5-2.2-1.2-2.8s-1.9-0.9-3.5-0.9
			c-2.6,0-3.8,0.9-3.8,2.6c0,0.9,0.3,1.5,1,2c0.6,0.4,1.8,0.8,3.4,1.1l2.5,0.4c3.7,0.6,6.4,1.7,8.1,3.3c1.7,1.5,2.5,3.7,2.5,6.5
			c0,3.3-1.2,5.8-3.5,7.6S694.8,230.1,690.7,230.1z"/>
		<path class="st15" d="M720,230.1c-4.7,0-8.5-1.5-11.4-4.5c-2.9-2.9-4.3-6.9-4.3-11.9c0-5,1.4-8.9,4.3-11.9c2.9-3,6.7-4.4,11.4-4.4
			s8.5,1.5,11.4,4.4c2.9,3,4.3,7,4.3,11.9c0,5-1.4,8.9-4.3,11.9C728.5,228.6,724.7,230.1,720,230.1z M714.9,220.2
			c1.3,1.6,3,2.3,5.1,2.3c2.1,0,3.8-0.8,5.1-2.3c1.3-1.5,1.9-3.7,1.9-6.4c0-2.7-0.6-4.8-1.9-6.4c-1.3-1.6-3-2.4-5.1-2.4
			c-2.1,0-3.8,0.8-5.1,2.4c-1.3,1.6-1.9,3.7-1.9,6.4C713,216.5,713.7,218.7,714.9,220.2z"/>
		<path class="st15" d="M751.7,230.1c-4.7,0-8.4-1.5-11.1-4.4c-2.8-2.9-4.2-6.9-4.2-11.9s1.4-9,4.1-12c2.7-2.9,6.5-4.4,11.2-4.4
			c3.8,0,7.1,1.1,9.8,3.3c2.7,2.2,4.3,5.2,4.8,9.1h-8.5c-0.4-1.6-1.1-2.8-2.2-3.6s-2.4-1.3-4-1.3c-2.2,0-3.8,0.8-4.9,2.3
			c-1.1,1.5-1.7,3.7-1.7,6.6c0,2.8,0.6,5,1.7,6.6c1.1,1.5,2.8,2.3,4.9,2.3c1.7,0,3.1-0.5,4.2-1.4c1.1-1,1.8-2.3,2.1-4h8.4
			c-0.5,4.1-2,7.3-4.7,9.5C759.1,229,755.7,230.1,751.7,230.1z"/>
		<path class="st15" d="M776.8,229.4h-8.4v-31.3h8.4V229.4z"/>
		<path class="st15" d="M809.4,229.4h-8.9l-1.3-4.1h-11.7l-1.3,4.1h-8.6l10.6-31.3h10.1L809.4,229.4z M791.8,210.8l-2.2,7.2h7.3
			l-2.2-7.2c-0.8-2.5-1.3-4.2-1.4-5C792.6,208.3,792.1,210,791.8,210.8z"/>
		<path class="st15" d="M808.5,198.1h26.1v7.8h-8.8v23.5h-8.4v-23.5h-8.8V198.1z"/>
		<path class="st15" d="M844.5,229.4h-8.4v-31.3h8.4V229.4z"/>
		<path class="st15" d="M862.1,230.1c-4.7,0-8.5-1.5-11.4-4.5c-2.9-2.9-4.3-6.9-4.3-11.9c0-5,1.4-8.9,4.3-11.9
			c2.9-3,6.7-4.4,11.4-4.4s8.5,1.5,11.4,4.4c2.9,3,4.3,7,4.3,11.9c0,5-1.4,8.9-4.3,11.9C870.6,228.6,866.8,230.1,862.1,230.1z
			 M857,220.2c1.3,1.6,3,2.3,5.1,2.3c2.1,0,3.8-0.8,5.1-2.3c1.3-1.5,1.9-3.7,1.9-6.4c0-2.7-0.6-4.8-1.9-6.4c-1.3-1.6-3-2.4-5.1-2.4
			c-2.1,0-3.8,0.8-5.1,2.4c-1.3,1.6-1.9,3.7-1.9,6.4C855.1,216.5,855.8,218.7,857,220.2z"/>
		<path class="st15" d="M898.9,203.2v-5.1h8v31.3H898l-6.4-11.1c-1.7-3-3.1-5.6-4.1-7.7c0.1,4.3,0.2,8.9,0.2,13.8v5.1h-8v-31.3h8.9
			l6.4,11.1c1.5,2.7,2.9,5.3,4.1,7.8C899,212.7,898.9,208.1,898.9,203.2z"/>
	</g>
</g>
<g>
	<g>
		<path class="st16" d="M345.2,240.3v2.9h-8.4v4h7.7v2.8h-7.7v7.4h-3.1v-17.1H345.2z"/>
		<path class="st16" d="M359.1,255.9c-1.1,1.2-2.6,1.8-4.4,1.8c-1.8,0-3.3-0.6-4.4-1.8c-1.1-1.2-1.7-2.7-1.7-4.7
			c0-2,0.6-3.5,1.7-4.7c1.1-1.2,2.6-1.8,4.4-1.8c1.8,0,3.3,0.6,4.4,1.8c1.1,1.2,1.7,2.7,1.7,4.7
			C360.7,253.2,360.2,254.7,359.1,255.9z M352.5,254.2c0.5,0.7,1.3,1,2.3,1s1.7-0.3,2.3-1c0.5-0.7,0.8-1.7,0.8-2.9
			c0-1.3-0.3-2.2-0.8-2.9c-0.5-0.7-1.3-1-2.3-1s-1.7,0.3-2.3,1c-0.5,0.7-0.8,1.7-0.8,3C351.7,252.5,351.9,253.5,352.5,254.2z"/>
		<path class="st16" d="M371.4,244.8c0.3,0,0.5,0,0.7,0v2.8h-0.7c-1.1,0-1.9,0.3-2.5,0.9s-0.9,1.4-0.9,2.6v6.3h-2.9V245h2.8v2.2
			C368.5,245.6,369.7,244.8,371.4,244.8z"/>
		<path class="st16" d="M395,251.4v0.7h-8.9c0.1,1.1,0.4,1.9,1,2.4s1.2,0.8,2.1,0.8c1.3,0,2.2-0.6,2.7-1.8h2.8
			c-0.3,1.3-0.9,2.3-1.9,3c-1,0.7-2.2,1.1-3.6,1.1c-1.8,0-3.2-0.6-4.3-1.8c-1.1-1.2-1.6-2.8-1.6-4.7c0-2,0.5-3.5,1.6-4.7
			c1.1-1.2,2.5-1.8,4.2-1.8c1.8,0,3.2,0.6,4.3,1.8C394.5,247.8,395,249.4,395,251.4z M389.1,247.1c-1.7,0-2.7,1-3,3h5.9
			c-0.1-0.9-0.4-1.6-1-2.2C390.6,247.4,390,247.1,389.1,247.1z"/>
		<path class="st16" d="M407.9,246.8V245h2.8v17.1h-2.9v-6.3c-0.8,1.3-2.1,1.9-3.6,1.9c-1.6,0-2.9-0.6-3.9-1.8
			c-1-1.2-1.4-2.8-1.4-4.7c0-2,0.5-3.6,1.4-4.7c0.9-1.2,2.2-1.8,3.9-1.8C405.8,244.7,407.1,245.4,407.9,246.8z M401.8,251.3
			c0,1.3,0.3,2.2,0.8,2.9c0.5,0.7,1.3,1,2.2,1c0.9,0,1.7-0.3,2.2-1c0.5-0.7,0.8-1.7,0.8-3c0-1.3-0.3-2.3-0.8-3c-0.5-0.7-1.3-1-2.2-1
			c-0.9,0-1.7,0.4-2.2,1.1C402.1,249,401.8,250,401.8,251.3z"/>
		<path class="st16" d="M423.3,252V245h2.9v12.4h-2.8v-1.8c-0.9,1.4-2.1,2.1-3.7,2.1c-1.3,0-2.3-0.4-3-1.2c-0.7-0.8-1.1-1.9-1.1-3.3
			V245h2.9v7.7c0,1.6,0.7,2.4,2.2,2.4c0.7,0,1.4-0.3,1.9-0.8C423.1,253.7,423.3,252.9,423.3,252z"/>
		<path class="st16" d="M441.7,257.4h-2.9c-0.1-0.3-0.2-0.8-0.3-1.5c-0.8,1.2-2.1,1.8-3.8,1.8c-1.3,0-2.3-0.3-3.1-1
			c-0.8-0.7-1.2-1.6-1.2-2.7c0-2.3,1.5-3.5,4.5-3.9l1.8-0.2c0.6-0.1,1-0.2,1.3-0.4s0.4-0.5,0.4-1c0-0.5-0.2-0.9-0.5-1.2
			c-0.3-0.2-0.9-0.4-1.7-0.4c-0.8,0-1.4,0.1-1.8,0.4c-0.4,0.3-0.6,0.8-0.6,1.5H431c0.2-2.8,1.9-4.2,5.3-4.2c3.3,0,4.9,1.2,4.9,3.7
			v6.6C441.3,256.2,441.4,256.9,441.7,257.4z M435.4,255.5c0.9,0,1.6-0.3,2.2-0.8c0.6-0.5,0.8-1.3,0.8-2.2v-1.1
			c-0.3,0.3-0.7,0.4-1.4,0.5l-1.6,0.2c-0.8,0.1-1.3,0.3-1.6,0.6s-0.5,0.7-0.5,1.2c0,0.5,0.2,0.9,0.5,1.2
			C434.3,255.4,434.8,255.5,435.4,255.5z"/>
		<path class="st16" d="M448.9,257.4H446v-17.1h2.9V257.4z"/>
		<path class="st16" d="M471.9,257.4H469c-0.1-0.3-0.2-0.8-0.3-1.5c-0.8,1.2-2.1,1.8-3.8,1.8c-1.3,0-2.3-0.3-3.1-1
			c-0.8-0.7-1.2-1.6-1.2-2.7c0-2.3,1.5-3.5,4.5-3.9l1.8-0.2c0.6-0.1,1-0.2,1.3-0.4c0.3-0.2,0.4-0.5,0.4-1c0-0.5-0.2-0.9-0.5-1.2
			c-0.3-0.2-0.9-0.4-1.7-0.4c-0.8,0-1.4,0.1-1.8,0.4s-0.6,0.8-0.6,1.5h-2.8c0.2-2.8,1.9-4.2,5.3-4.2c3.3,0,4.9,1.2,4.9,3.7v6.6
			C471.4,256.2,471.6,256.9,471.9,257.4z M465.5,255.5c0.9,0,1.6-0.3,2.2-0.8c0.6-0.5,0.8-1.3,0.8-2.2v-1.1
			c-0.3,0.3-0.7,0.4-1.4,0.5l-1.6,0.2c-0.8,0.1-1.3,0.3-1.6,0.6s-0.5,0.7-0.5,1.2c0,0.5,0.2,0.9,0.5,1.2
			C464.4,255.4,464.9,255.5,465.5,255.5z"/>
		<path class="st16" d="M481.4,257.7c-1.7,0-3.2-0.6-4.2-1.8c-1.1-1.2-1.6-2.7-1.6-4.7c0-2,0.5-3.6,1.6-4.7c1.1-1.2,2.5-1.8,4.2-1.8
			c1.5,0,2.8,0.4,3.8,1.3c1,0.9,1.6,2,1.7,3.5h-2.9c-0.1-0.7-0.4-1.3-0.9-1.7s-1-0.6-1.7-0.6c-0.9,0-1.6,0.3-2.1,1s-0.8,1.7-0.8,2.9
			c0,1.3,0.3,2.3,0.8,2.9c0.5,0.7,1.2,1,2.1,1c0.7,0,1.3-0.2,1.8-0.6c0.5-0.4,0.8-1,0.9-1.8h2.9c-0.2,1.5-0.7,2.7-1.7,3.6
			S483,257.7,481.4,257.7z"/>
		<path class="st16" d="M496.4,257.7c-1.7,0-3.2-0.6-4.2-1.8c-1.1-1.2-1.6-2.7-1.6-4.7c0-2,0.5-3.6,1.6-4.7c1.1-1.2,2.5-1.8,4.2-1.8
			c1.5,0,2.8,0.4,3.8,1.3c1,0.9,1.6,2,1.7,3.5H499c-0.1-0.7-0.4-1.3-0.9-1.7s-1-0.6-1.7-0.6c-0.9,0-1.6,0.3-2.1,1s-0.8,1.7-0.8,2.9
			c0,1.3,0.3,2.3,0.8,2.9c0.5,0.7,1.2,1,2.1,1c0.7,0,1.3-0.2,1.8-0.6c0.5-0.4,0.8-1,0.9-1.8h2.9c-0.2,1.5-0.7,2.7-1.7,3.6
			S498,257.7,496.4,257.7z"/>
		<path class="st16" d="M517.3,251.4v0.7h-8.9c0.1,1.1,0.4,1.9,1,2.4c0.5,0.5,1.2,0.8,2.1,0.8c1.3,0,2.2-0.6,2.7-1.8h2.8
			c-0.3,1.3-0.9,2.3-1.9,3c-1,0.7-2.2,1.1-3.6,1.1c-1.8,0-3.2-0.6-4.3-1.8c-1.1-1.2-1.6-2.8-1.6-4.7c0-2,0.5-3.5,1.6-4.7
			c1.1-1.2,2.5-1.8,4.2-1.8c1.8,0,3.2,0.6,4.3,1.8C516.7,247.8,517.3,249.4,517.3,251.4z M511.4,247.1c-1.7,0-2.7,1-3,3h5.9
			c-0.1-0.9-0.4-1.6-1-2.2C512.9,247.4,512.2,247.1,511.4,247.1z"/>
		<path class="st16" d="M526.3,257.8c-3.5,0-5.3-1.4-5.4-4.3h2.8c0.1,0.8,0.3,1.3,0.7,1.6s1,0.5,1.9,0.5c1.6,0,2.3-0.5,2.3-1.5
			c0-0.4-0.2-0.8-0.5-1c-0.3-0.2-0.9-0.4-1.8-0.6l-1.4-0.2c-2.6-0.4-3.9-1.7-3.9-3.7c0-1.2,0.4-2.1,1.3-2.7s2.1-1,3.6-1
			c3.4,0,5.1,1.4,5.2,4.2h-2.7c0-0.7-0.3-1.3-0.7-1.6c-0.4-0.3-1-0.5-1.8-0.5c-1.4,0-2.1,0.5-2.1,1.4c0,0.4,0.2,0.7,0.5,1
			c0.3,0.2,0.8,0.4,1.5,0.5l1.5,0.2c1.4,0.3,2.5,0.7,3.1,1.3c0.7,0.6,1,1.4,1,2.5c0,1.2-0.5,2.2-1.4,2.9S528,257.8,526.3,257.8z"/>
		<path class="st16" d="M540.3,257.8c-3.5,0-5.3-1.4-5.4-4.3h2.8c0.1,0.8,0.3,1.3,0.7,1.6s1,0.5,1.9,0.5c1.6,0,2.3-0.5,2.3-1.5
			c0-0.4-0.2-0.8-0.5-1c-0.3-0.2-0.9-0.4-1.8-0.6l-1.4-0.2c-2.6-0.4-3.9-1.7-3.9-3.7c0-1.2,0.4-2.1,1.3-2.7s2.1-1,3.6-1
			c3.4,0,5.1,1.4,5.2,4.2h-2.7c0-0.7-0.3-1.3-0.7-1.6c-0.4-0.3-1-0.5-1.8-0.5c-1.4,0-2.1,0.5-2.1,1.4c0,0.4,0.2,0.7,0.5,1
			c0.3,0.2,0.8,0.4,1.5,0.5l1.5,0.2c1.4,0.3,2.5,0.7,3.1,1.3c0.7,0.6,1,1.4,1,2.5c0,1.2-0.5,2.2-1.4,2.9S541.9,257.8,540.3,257.8z"
			/>
		<path class="st16" d="M563.2,245v2.3h-2.3v6.7c0,0.4,0.1,0.7,0.3,0.8c0.2,0.2,0.6,0.2,1,0.2h1v2.3c-0.6,0.1-1.1,0.1-1.5,0.1
			c-1.3,0-2.2-0.3-2.8-0.8s-0.9-1.3-0.9-2.4v-7h-1.8V245h1.8v-3.6h2.9v3.6H563.2z"/>
		<path class="st16" d="M577.3,255.9c-1.1,1.2-2.6,1.8-4.4,1.8c-1.8,0-3.3-0.6-4.4-1.8c-1.1-1.2-1.7-2.7-1.7-4.7
			c0-2,0.6-3.5,1.7-4.7c1.1-1.2,2.6-1.8,4.4-1.8c1.8,0,3.3,0.6,4.4,1.8s1.7,2.7,1.7,4.7C579,253.2,578.4,254.7,577.3,255.9z
			 M570.7,254.2c0.5,0.7,1.3,1,2.3,1c1,0,1.7-0.3,2.3-1s0.8-1.7,0.8-2.9c0-1.3-0.3-2.2-0.8-2.9s-1.3-1-2.3-1c-1,0-1.7,0.3-2.3,1
			c-0.5,0.7-0.8,1.7-0.8,3C569.9,252.5,570.2,253.5,570.7,254.2z"/>
		<path class="st16" d="M590.2,262.2c-0.1,0-0.5,0-1.1,0v-2.4h0.6c0.7,0,1.1-0.4,1.1-1.1V245h2.9v14c0,1.1-0.3,1.9-0.9,2.4
			C592.3,261.9,591.4,262.2,590.2,262.2z M593.7,243.4h-2.8v-2.8h2.8V243.4z"/>
		<path class="st16" d="M606.3,252V245h2.9v12.4h-2.8v-1.8c-0.9,1.4-2.1,2.1-3.7,2.1c-1.3,0-2.3-0.4-3-1.2c-0.7-0.8-1.1-1.9-1.1-3.3
			V245h2.9v7.7c0,1.6,0.7,2.4,2.2,2.4c0.7,0,1.4-0.3,1.9-0.8C606.1,253.7,606.3,252.9,606.3,252z"/>
		<path class="st16" d="M618.7,257.8c-3.5,0-5.3-1.4-5.4-4.3h2.8c0.1,0.8,0.3,1.3,0.7,1.6s1,0.5,1.9,0.5c1.6,0,2.3-0.5,2.3-1.5
			c0-0.4-0.2-0.8-0.5-1c-0.3-0.2-0.9-0.4-1.8-0.6l-1.4-0.2c-2.6-0.4-3.9-1.7-3.9-3.7c0-1.2,0.4-2.1,1.3-2.7s2.1-1,3.6-1
			c3.4,0,5.1,1.4,5.2,4.2H621c0-0.7-0.3-1.3-0.7-1.6c-0.4-0.3-1-0.5-1.8-0.5c-1.4,0-2.1,0.5-2.1,1.4c0,0.4,0.2,0.7,0.5,1
			c0.3,0.2,0.8,0.4,1.5,0.5l1.5,0.2c1.4,0.3,2.5,0.7,3.1,1.3c0.7,0.6,1,1.4,1,2.5c0,1.2-0.5,2.2-1.4,2.9S620.4,257.8,618.7,257.8z"
			/>
		<path class="st16" d="M634.2,245v2.3h-2.3v6.7c0,0.4,0.1,0.7,0.3,0.8c0.2,0.2,0.6,0.2,1,0.2h1v2.3c-0.6,0.1-1.1,0.1-1.5,0.1
			c-1.3,0-2.2-0.3-2.8-0.8s-0.9-1.3-0.9-2.4v-7h-1.8V245h1.8v-3.6h2.9v3.6H634.2z"/>
		<path class="st16" d="M641.3,257.4h-2.9V245h2.9V257.4z M641.3,243.4h-2.8v-2.8h2.8V243.4z"/>
		<path class="st16" d="M651.5,257.7c-1.7,0-3.2-0.6-4.2-1.8c-1.1-1.2-1.6-2.7-1.6-4.7c0-2,0.5-3.6,1.6-4.7c1.1-1.2,2.5-1.8,4.2-1.8
			c1.5,0,2.8,0.4,3.8,1.3c1,0.9,1.6,2,1.7,3.5h-2.9c-0.1-0.7-0.4-1.3-0.9-1.7s-1-0.6-1.7-0.6c-0.9,0-1.6,0.3-2.1,1s-0.8,1.7-0.8,2.9
			c0,1.3,0.3,2.3,0.8,2.9c0.5,0.7,1.2,1,2.1,1c0.7,0,1.3-0.2,1.8-0.6c0.5-0.4,0.8-1,0.9-1.8h2.9c-0.2,1.5-0.7,2.7-1.7,3.6
			S653,257.7,651.5,257.7z"/>
		<path class="st16" d="M672.3,251.4v0.7h-8.9c0.1,1.1,0.4,1.9,1,2.4c0.5,0.5,1.2,0.8,2.1,0.8c1.3,0,2.2-0.6,2.7-1.8h2.8
			c-0.3,1.3-0.9,2.3-1.9,3c-1,0.7-2.2,1.1-3.6,1.1c-1.8,0-3.2-0.6-4.3-1.8c-1.1-1.2-1.6-2.8-1.6-4.7c0-2,0.5-3.5,1.6-4.7
			c1.1-1.2,2.5-1.8,4.2-1.8c1.8,0,3.2,0.6,4.3,1.8C671.8,247.8,672.3,249.4,672.3,251.4z M666.5,247.1c-1.7,0-2.7,1-3,3h5.9
			c-0.1-0.9-0.4-1.6-1-2.2C668,247.4,667.3,247.1,666.5,247.1z"/>
		<path class="st16" d="M694.9,257.4H692c-0.1-0.3-0.2-0.8-0.3-1.5c-0.8,1.2-2.1,1.8-3.8,1.8c-1.3,0-2.3-0.3-3.1-1
			c-0.8-0.7-1.2-1.6-1.2-2.7c0-2.3,1.5-3.5,4.5-3.9l1.8-0.2c0.6-0.1,1-0.2,1.3-0.4s0.4-0.5,0.4-1c0-0.5-0.2-0.9-0.5-1.2
			s-0.9-0.4-1.7-0.4c-0.8,0-1.4,0.1-1.8,0.4s-0.6,0.8-0.6,1.5h-2.8c0.2-2.8,1.9-4.2,5.3-4.2c3.3,0,4.9,1.2,4.9,3.7v6.6
			C694.4,256.2,694.5,256.9,694.9,257.4z M688.5,255.5c0.9,0,1.6-0.3,2.2-0.8c0.6-0.5,0.8-1.3,0.8-2.2v-1.1
			c-0.3,0.3-0.7,0.4-1.4,0.5l-1.6,0.2c-0.8,0.1-1.3,0.3-1.6,0.6c-0.3,0.3-0.5,0.7-0.5,1.2c0,0.5,0.2,0.9,0.5,1.2
			C687.4,255.4,687.9,255.5,688.5,255.5z"/>
		<path class="st16" d="M705.6,244.7c1.3,0,2.3,0.4,3,1.2s1.1,1.9,1.1,3.3v8.2h-2.9v-7.7c0-1.6-0.7-2.4-2.2-2.4
			c-0.7,0-1.4,0.3-1.9,0.8c-0.5,0.6-0.8,1.3-0.8,2.3v6.9h-2.9V245h2.8v1.8C702.8,245.4,704,244.7,705.6,244.7z"/>
		<path class="st16" d="M723.1,246.6v-6.3h2.9v17.1h-2.8v-1.7c-0.9,1.3-2.1,2-3.7,2c-1.6,0-2.9-0.6-3.9-1.8c-1-1.2-1.4-2.8-1.4-4.7
			c0-2,0.5-3.6,1.4-4.7c0.9-1.2,2.2-1.8,3.9-1.8C721,244.7,722.2,245.4,723.1,246.6z M717,251.3c0,1.3,0.3,2.2,0.8,2.9
			c0.5,0.7,1.3,1,2.2,1s1.7-0.3,2.2-1c0.5-0.7,0.8-1.7,0.8-3c0-1.3-0.3-2.3-0.8-3c-0.5-0.7-1.3-1-2.2-1c-0.9,0-1.7,0.4-2.2,1.1
			C717.3,249,717,250,717,251.3z"/>
		<path class="st16" d="M746.7,246.6v-6.3h2.9v17.1h-2.8v-1.7c-0.9,1.3-2.1,2-3.7,2c-1.6,0-2.9-0.6-3.9-1.8c-1-1.2-1.4-2.8-1.4-4.7
			c0-2,0.5-3.6,1.4-4.7c0.9-1.2,2.2-1.8,3.9-1.8C744.7,244.7,745.9,245.4,746.7,246.6z M740.7,251.3c0,1.3,0.3,2.2,0.8,2.9
			c0.5,0.7,1.3,1,2.2,1s1.7-0.3,2.2-1c0.5-0.7,0.8-1.7,0.8-3c0-1.3-0.3-2.3-0.8-3c-0.5-0.7-1.3-1-2.2-1c-0.9,0-1.7,0.4-2.2,1.1
			C741,249,740.7,250,740.7,251.3z"/>
		<path class="st16" d="M765.7,251.4v0.7h-8.9c0.1,1.1,0.4,1.9,1,2.4c0.5,0.5,1.2,0.8,2.1,0.8c1.3,0,2.2-0.6,2.7-1.8h2.8
			c-0.3,1.3-0.9,2.3-1.9,3c-1,0.7-2.2,1.1-3.6,1.1c-1.8,0-3.2-0.6-4.3-1.8c-1.1-1.2-1.6-2.8-1.6-4.7c0-2,0.5-3.5,1.6-4.7
			c1.1-1.2,2.5-1.8,4.2-1.8c1.8,0,3.2,0.6,4.3,1.8C765.1,247.8,765.7,249.4,765.7,251.4z M759.8,247.1c-1.7,0-2.7,1-3,3h5.9
			c-0.1-0.9-0.4-1.6-1-2.2C761.3,247.4,760.6,247.1,759.8,247.1z"/>
		<path class="st16" d="M776.9,248.3l1.1-3.3h3l-4.4,12.4h-3.3l-4.4-12.4h3.1l1.1,3.3c0.5,1.7,1.2,3.8,1.9,6.3
			C775.6,252.7,776.2,250.6,776.9,248.3z"/>
		<path class="st16" d="M796,251.4v0.7h-8.9c0.1,1.1,0.4,1.9,1,2.4c0.5,0.5,1.2,0.8,2.1,0.8c1.3,0,2.2-0.6,2.7-1.8h2.8
			c-0.3,1.3-0.9,2.3-1.9,3c-1,0.7-2.2,1.1-3.6,1.1c-1.8,0-3.2-0.6-4.3-1.8c-1.1-1.2-1.6-2.8-1.6-4.7c0-2,0.5-3.5,1.6-4.7
			c1.1-1.2,2.5-1.8,4.2-1.8c1.8,0,3.2,0.6,4.3,1.8C795.5,247.8,796,249.4,796,251.4z M790.1,247.1c-1.7,0-2.7,1-3,3h5.9
			c-0.1-0.9-0.4-1.6-1-2.2C791.6,247.4,791,247.1,790.1,247.1z"/>
		<path class="st16" d="M803.3,257.4h-2.9v-17.1h2.9V257.4z"/>
		<path class="st16" d="M818,255.9c-1.1,1.2-2.6,1.8-4.4,1.8c-1.8,0-3.3-0.6-4.4-1.8c-1.1-1.2-1.7-2.7-1.7-4.7c0-2,0.6-3.5,1.7-4.7
			c1.1-1.2,2.6-1.8,4.4-1.8c1.8,0,3.3,0.6,4.4,1.8s1.7,2.7,1.7,4.7C819.7,253.2,819.1,254.7,818,255.9z M811.4,254.2
			c0.5,0.7,1.3,1,2.3,1c1,0,1.7-0.3,2.3-1s0.8-1.7,0.8-2.9c0-1.3-0.3-2.2-0.8-2.9s-1.3-1-2.3-1c-1,0-1.7,0.3-2.3,1
			c-0.5,0.7-0.8,1.7-0.8,3C810.6,252.5,810.8,253.5,811.4,254.2z"/>
		<path class="st16" d="M830.6,244.7c1.6,0,2.9,0.6,3.9,1.8c0.9,1.2,1.4,2.8,1.4,4.7c0,2-0.5,3.5-1.4,4.7c-1,1.2-2.3,1.8-3.9,1.8
			c-1.6,0-2.8-0.6-3.7-1.9v6.3H824V245h2.8v1.8C827.6,245.4,828.9,244.7,830.6,244.7z M827.6,254.2c0.5,0.7,1.3,1,2.2,1
			c0.9,0,1.7-0.4,2.2-1.1c0.5-0.7,0.8-1.7,0.8-3c0-1.3-0.3-2.2-0.8-2.9c-0.5-0.7-1.3-1-2.3-1c-1,0-1.7,0.3-2.2,1
			c-0.5,0.7-0.8,1.7-0.8,3C826.8,252.5,827.1,253.5,827.6,254.2z"/>
		<path class="st16" d="M853.7,244.7c1.3,0,2.3,0.4,3,1.2s1.1,1.9,1.1,3.3v8.2h-2.9v-7.7c0-1.6-0.7-2.4-2-2.4
			c-0.7,0-1.3,0.3-1.8,0.8c-0.5,0.6-0.7,1.4-0.7,2.4v6.8h-2.9v-7.7c0-1.6-0.7-2.4-2.1-2.4c-0.7,0-1.3,0.3-1.8,0.8
			c-0.5,0.6-0.7,1.4-0.7,2.4v6.8h-2.9V245h2.8v1.8c0.8-1.4,1.9-2.1,3.4-2.1c1.8,0,3,0.8,3.7,2.3
			C850.9,245.5,852.1,244.7,853.7,244.7z"/>
		<path class="st16" d="M873.9,251.4v0.7H865c0.1,1.1,0.4,1.9,1,2.4c0.5,0.5,1.2,0.8,2.1,0.8c1.3,0,2.2-0.6,2.7-1.8h2.8
			c-0.3,1.3-0.9,2.3-1.9,3c-1,0.7-2.2,1.1-3.6,1.1c-1.8,0-3.2-0.6-4.3-1.8c-1.1-1.2-1.6-2.8-1.6-4.7c0-2,0.5-3.5,1.6-4.7
			c1.1-1.2,2.5-1.8,4.2-1.8c1.8,0,3.2,0.6,4.3,1.8C873.3,247.8,873.9,249.4,873.9,251.4z M868,247.1c-1.7,0-2.7,1-3,3h5.9
			c-0.1-0.9-0.4-1.6-1-2.2C869.5,247.4,868.8,247.1,868,247.1z"/>
		<path class="st16" d="M884.8,244.7c1.3,0,2.3,0.4,3,1.2s1.1,1.9,1.1,3.3v8.2H886v-7.7c0-1.6-0.7-2.4-2.2-2.4
			c-0.7,0-1.4,0.3-1.9,0.8c-0.5,0.6-0.8,1.3-0.8,2.3v6.9h-2.9V245h2.8v1.8C882,245.4,883.2,244.7,884.8,244.7z"/>
		<path class="st16" d="M899.9,245v2.3h-2.3v6.7c0,0.4,0.1,0.7,0.3,0.8c0.2,0.2,0.6,0.2,1,0.2h1v2.3c-0.6,0.1-1.1,0.1-1.5,0.1
			c-1.3,0-2.2-0.3-2.8-0.8s-0.9-1.3-0.9-2.4v-7h-1.8V245h1.8v-3.6h2.9v3.6H899.9z"/>
	</g>
</g>
<g>
	<g>
		<path class="st17" d="M727.6,184.2c-5.3,0-9.4-1.1-12.2-3.4c-2.9-2.3-4.3-5.4-4.3-9.3h10c0,1.9,0.6,3.2,1.7,3.9
			c1.1,0.7,2.9,1.1,5.2,1.1c3.5,0,5.2-1.1,5.2-3.3c0-1-0.4-1.8-1.2-2.2c-0.8-0.5-2.3-0.9-4.6-1.3l-2.9-0.5
			c-8.5-1.4-12.8-5.3-12.8-11.7c0-3.4,1.3-6.2,3.9-8.2c2.6-2,6.4-3,11.2-3c4.9,0,8.7,1,11.4,3s4.1,5,4.4,9h-9.7
			c-0.1-1.5-0.6-2.5-1.5-3.2c-0.9-0.7-2.4-1-4.4-1c-3.1,0-4.7,1-4.7,3c0,1,0.4,1.8,1.2,2.3c0.8,0.5,2.2,0.9,4.2,1.3l3.1,0.5
			c4.6,0.7,7.9,2,10,3.8c2.1,1.8,3.1,4.3,3.1,7.5c0,3.8-1.4,6.8-4.3,8.8C736.7,183.2,732.7,184.2,727.6,184.2z"/>
		<path class="st17" d="M762,184.2c-4.9,0-8.9-1.3-11.9-3.8c-3.1-2.5-4.7-6.2-4.7-10.9v-22.4h10.4v22.5c0,1.9,0.5,3.4,1.6,4.4
			c1.1,1,2.6,1.5,4.6,1.5c2,0,3.5-0.5,4.6-1.5c1.1-1,1.6-2.5,1.6-4.4v-22.5h10.4v22.4c0,4.8-1.5,8.4-4.5,11
			C771.1,183,767,184.2,762,184.2z"/>
		<path class="st17" d="M782,147.1h16.1c6.4,0,11.2,1.6,14.4,4.9c3.2,3.3,4.8,7.7,4.8,13.3c0,5.5-1.6,10-4.8,13.3
			c-3.2,3.3-8,4.9-14.4,4.9H782V147.1z M792.4,174.8h5.5c5.7,0,8.6-3.2,8.6-9.6c0-6.4-2.9-9.6-8.6-9.6h-5.5V174.8z"/>
		<path class="st17" d="M855.9,183.4h-11l-1.6-4.7h-14.5l-1.6,4.7h-10.6l13.1-36.3h12.4L855.9,183.4z M834.3,161.9l-2.7,8.4h9
			l-2.7-8.4c-1-2.9-1.6-4.8-1.8-5.8C835.1,159,834.6,160.9,834.3,161.9z"/>
		<path class="st17" d="M880.5,153v-5.9h9.9v36.3h-10.9l-7.8-12.9c-2.1-3.5-3.8-6.5-5.1-9c0.2,5,0.3,10.3,0.3,16v5.9h-9.9v-36.3
			h10.9l7.8,12.9c1.9,3.1,3.6,6.1,5.1,9C880.6,164,880.5,158.7,880.5,153z"/>
	</g>
</g>
</svg>
