<?xml version="1.0" encoding="utf-8"?>
<!-- Generator: Adobe Illustrator 21.0.2, SVG Export Plug-In . SVG Version: 6.00 Build 0)  -->
<svg version="1.1" id="Layer_1" xmlns="http://www.w3.org/2000/svg" xmlns:xlink="http://www.w3.org/1999/xlink" x="0px" y="0px"
	 viewBox="0 0 553.8 520.8" style="enable-background:new 0 0 553.8 520.8;" xml:space="preserve">
<style type="text/css">
	.st0{fill:#1B9ACA;}
	.st1{fill:#060606;}
	.st2{fill:#0B0B0B;}
	.st3{fill:#7C7C7C;}
	.st4{fill:#727272;}
	.st5{fill:#4E4E4E;}
	.st6{fill:#595959;}
	.st7{fill:#090909;}
	.st8{fill:#F5F5F5;}
	.st9{fill:#3A3A3A;}
	.st10{fill:#FFFFFF;}
	.st11{font-family:'Arial-Black';}
	.st12{font-size:26.7408px;}
</style>
<g>
	<path class="st0" d="M276.8,55C160.9,55,66.9,149,66.9,264.8c0,115.9,93.9,209.8,209.8,209.8c115.9,0,209.8-94,209.8-209.8
		C486.6,149,392.7,55,276.8,55z M285.9,430c-90.4,4.5-171-64-174.9-161.1c-1.5-90.5,67.1-163.4,153.3-169.1
		c94.6-6.2,172.8,63.6,178,157.3C447.2,346.3,375.5,425.5,285.9,430z"/>
	<path class="st1" d="M384.2,256.1c-0.7,0.1-1.4,0.3-2.1,0.4h0c-6.3,1-12.7,0.3-19,0.2c-11.6-0.1-23.1,0.7-34.7-0.4
		c-0.6-0.1-1.1-0.1-1.7-0.2c0.1-0.9,0.1-0.9,0.2-1.8c0.9-0.1,1.9-1,2.9-1.1c2.9,0,8.6,0,8.6,0l15.3-0.7c0,0-0.2-8.9,0-13.8
		c0-0.3-1-41.6-1.4-42.5c-6.9,16.7-13.8,33.4-20.6,50.1c-0.7,1.7-0.7,4.6-0.9,6.5c0.3,0.4-2,2.9-2,1c-1,0.4-1.3,0.2-2,0.9
		c8-19.5,24.3-59.9,24.3-59.9l1.1-10.7c0,0,4.4,4.5,5.4,4c0.4,1.8,1.2,5.4,1.2,5.4s15.9,38.3,23.8,57.5c-0.6-0.3,0,3.3-0.7,3.3
		c-7.9-18.9-24.7-60.5-24.7-60.5s-0.9,2.7-0.9,4.1v0c0,1.2-1.1,34.4-1.1,34.4l-0.1,17.1l0.1,3.1c0,0,18.7,1.9,26.3-0.2
		c0.4-0.4,0.7-0.9,1.1-1.3C383.1,252.7,383.7,254.4,384.2,256.1z"/>
	<path class="st0" d="M276,298.5c-1.1-1.5-1.1-3.4-1.2-5.1c-1.7-4.9-1.4-10-2-15.1L276,298.5z"/>
	<path class="st0" d="M280.2,297.5c-0.1,0.3-0.2,0.6-0.2,0.9c-0.5-0.1-1.1-0.3-1.7-0.7l0-0.1c-0.3-0.6-0.5-1.2-0.7-1.8l1.5-16.3
		C278.9,285.5,277.9,291.6,280.2,297.5z"/>
	<path class="st2" d="M257.5,168c3.2,2.7,7.8,6.2,7,9.5c-0.8,3.5-6.6,0.3-9.9,1.5c-6.4-3.8-12.7-2.9-18.8,0.8
		c-4.8,2.9-9.8,5.2-15.5,5.6c-4.2,0.3-8.6,3-12.2-1.4c-2-2.9-4.6-5.4-5.8-8.8c-1.1-3.3-0.7-6.1,1.8-8.5c1.9-1.8,4.3-2.4,6.8-1.2
		c2.9,1.4,4.3,4,3.5,7.1c-0.8,3,0.6,3.4,3,3.4c4.8,0,9.4-1.2,13-4.2C238.8,164.9,247.6,163.2,257.5,168z"/>
	<path class="st2" d="M314.9,177.5c-2.8-3.8-1.2-8.5,4.1-12.3c5.6-0.2,10.4,1.7,14.8,5.2c3.2,2.5,6.6,4.5,10.6,5.3
		c4.1,0.7,8.6,2.1,7.8-5.2c-0.3-3.2,2.3-5.3,5.7-5.3c3.8,0.1,6.2,2.2,6.6,6.1c0.5,4.9-2.3,8.4-5.5,11.6c-2.9,6.1-8,3.1-12.4,2.8
		c-5.9-0.4-11-2.7-16-5.7C325.8,177,320.6,175.7,314.9,177.5z"/>
	<path class="st2" d="M384,257.6c-1.3,3.9-4.5,6.1-7.9,7.6c-13.5,6.2-27.1,6-40.6,0.3c-3.6-1.5-7.2-3.6-8.4-7.9
		c1.8-2.2,4.2-2.1,6.7-2.1c14.5,0,29.1,0,43.6,0C379.8,255.5,382.3,255.4,384,257.6z"/>
	<path class="st2" d="M239.1,259c-3.3,5.3-8.7,7.5-14.2,8.9c-11.7,3-23.3,2.6-34.3-2.7c-3.3-1.6-6.8-3.4-7.6-7.7
		c1.8-2.1,4.3-2.1,6.8-2.1c14.2,0,28.5-0.1,42.7,0C235,255.5,238.5,254.7,239.1,259z"/>
	<path class="st1" d="M240.1,256.1c-0.7,0.1-1.4,0.3-2.1,0.4h0c-6.3,1-12.7,0.3-19,0.2c-11.6-0.1-23.1,0.7-34.7-0.4
		c-0.6-0.1-1.1-0.1-1.7-0.2c0.1-0.9,0.1-0.9,0.2-1.8c0.9-0.1,1.9-1,2.9-1.1c2.9,0,8.6,0,8.6,0l15.3-0.7c0,0-0.2-8.9,0-13.8
		c0-0.3-1-41.6-1.4-42.5c-6.9,16.7-13.8,33.4-20.6,50.1c-0.7,1.7-0.7,4.6-0.9,6.5c0.3,0.4-2,2.9-2,1c-1,0.4-1.3,0.2-2,0.9
		c8-19.5,24.3-59.9,24.3-59.9l1.1-10.7c0,0,4.4,4.5,5.4,4c0.4,1.8,1.2,5.4,1.2,5.4s15.9,38.3,23.8,57.5c-0.6-0.3,0,3.3-0.7,3.3
		c-7.9-18.9-24.7-60.5-24.7-60.5s-0.9,2.7-0.9,4.1v0c0,1.2-1.1,34.4-1.1,34.4l-0.1,17.1l0.1,3.1c0,0,18.7,1.9,26.3-0.2
		c0.4-0.4,0.7-0.9,1.1-1.3C239,252.7,239.5,254.4,240.1,256.1z"/>
	<path class="st3" d="M213.5,188.1c-1,0.5-2,1.1-2.9,1.6C211,188.3,211.9,187.5,213.5,188.1z"/>
	<path class="st4" d="M182.7,256.2c19.1,0,38.3-0.1,57.4-0.1c0,1.1,0,2.1-0.9,2.9c-2.2-2.1-5-1.4-7.6-1.4c-16.2-0.1-32.4,0-48.6,0
		C182.8,257.1,182.8,256.6,182.7,256.2z"/>
	<path class="st4" d="M326.9,256.1c19.1,0,38.2,0,57.3,0c-0.1,0.5-0.2,1-0.3,1.5c-19,0-37.9,0-56.9,0
		C327,257.1,327,256.6,326.9,256.1z"/>
	<path class="st5" d="M357.8,192c-1.6-0.1-3.1-0.3-4.4-1.5c-0.1-4.6-4.1-3.9-6.8-5c4.2-0.4,8.5-0.6,12.4-2.8
		C359.6,186,356.9,188.8,357.8,192z"/>
	<path class="st6" d="M220.3,185.5c-2.1,1.2-5,0.4-6.8,2.5c-1,0.5-2,1.1-2.9,1.6c-2.1-1.3-3.1-3.1-2.4-5.5
		C212.2,184.6,216.2,185.1,220.3,185.5z"/>
	<path class="st0" d="M293.3,215.2c0.1,3.5-0.4,7.1,0.1,10.6c0.9,7.9-0.5,14.4-7.3,19.8c-5.4,4.3-4.3,7.4,2.2,9.9
		c2.1,0.8,4.3,1.3,6.3,2c11.3,4.2,13.3,14.7,4.4,22.8c-1.6,1.5-3.6,2.6-5.4,3.9c-2.5,4.9-7.4,7.8-10,12.7c-0.7,1.3-2.1,1.8-3.6,1.5
		c0.1-0.3,0.2-0.6,0.2-0.9c-2.3-5.9-1.3-12-1.1-18v0c0-1.1,0-2.1,0-3.2c0.1-0.1,0.2-0.2,0.4-0.3h0c3.5-3,5.2-6.4,1.2-10.2
		c-3.1-2.9-6.6-2.2-9.4,0.7c-3.1,3.4-1.2,6.5,1.1,9.4l0.4,2.4c0.6,5,0.3,10.2,2,15.1c0.2,1.8,0.2,3.6,1.2,5.1l0.4,2.6l0,0l-7.8-7.8
		c-0.1-0.4-0.3-0.8-0.5-1.2c-0.2-0.3-0.5-0.6-0.7-0.9c-3.4-4.2-7.8-7.3-12.2-10.3c-4.8-3.1-8.2-7-7-13.1c1.2-6.3,5.7-9.7,11.5-11.6
		c0.6-0.2,1.3-0.3,2-0.4c3.1-0.6,6.3-1.4,7.4-4.8c1.2-3.8-1.6-6.1-4.1-8.4c-0.8-0.7-1.5-1.6-2.3-2.4c-2.1-7.6-0.7-15.3-0.8-23
		c0-5.2,2.7-10.9-1.8-15.7c-5.7-6.6-7.9-14-5.4-22.5l0,0l0,0c3.3-3.1,2.1-7.3,2.9-11l0,0c2.1-2.2,4.3-4.3,6.7-6.2l0.1,0.1
		c1.5,0.9,3,1.7,4.5,2.6c0.8,0.4,1.5,0.9,2.3,1.3c0.6,0.3,1.4,0.7,1.8,1.3c0.4,0.6,0.4,1.5,0.5,2.1c0.1,0.9,0.3,1.8,0.4,2.7
		c0.3,1.7,0.6,3.4,0.9,5.1c0.1,0.6,1,0.3,0.9-0.2c-0.3-1.8-0.6-3.7-0.9-5.5c-0.1-0.9-0.3-1.8-0.4-2.7c-0.1-0.7-0.2-1.5-0.6-2.1
		c-0.4-0.6-1.1-0.9-1.8-1.3c-0.8-0.4-1.5-0.9-2.3-1.3c-1.5-0.9-3-1.7-4.6-2.6c3.4-2.6,7.1-4.7,10.9-6.4c2.4,1.1,4.9,2.3,6.7,4.2
		c2.4,2.6,2.7,6,3.1,9.4c0.3,2.2,0.5,4.3,0.8,6.5c0.1,0.6,1,0.6,0.9,0c-0.2-2-0.5-4-0.7-6.1c-0.2-1.8-0.4-3.7-0.8-5.5
		c-0.4-1.6-1.1-3.1-2.1-4.4c-1-1.2-2.2-2.1-3.5-2.9c-1-0.6-2.1-1.2-3.2-1.6l0.2-0.1c4.3-1.7,10.1-1.2,15.2-2.4
		c2.8-0.7,3.8,3.1,6.1,5c1.3,3.2,2.5,6.4,3.4,9.7c0.4,1.3,0.6,2.7,1.3,4c0.3,0.5,0.7,1,1.2,1.3c0.6,0.4,1.4,0.5,2,1
		c0.4,0.4,1.1-0.2,0.6-0.6c-0.5-0.5-1.2-0.6-1.8-1c-0.6-0.3-1-0.8-1.3-1.3c-0.7-1.3-0.9-2.8-1.3-4.1c-0.9-3.2-2-6.3-3.3-9.4
		c0.6-1.5,1.1-2.9,1.7-4.2c1.2-2.6,3.3-4.1,6.2-4.3c3.1-0.2,3.9,2.3,5,4.5c2.1,4.3,2.8,9.4,6.8,12.7c0.5,4.7-3.1,8.1-4.1,12.3
		c-1.5,13.3-7.6,23.9-18.7,31.5C293.9,210.5,293.2,212.6,293.3,215.2z"/>
	<path class="st7" d="M204.8,300.8h-4.4l-36.5,40.7h102.1c0,0,0.5-4.5,3.6-5.8s7.3-3.1,7.3-3.1s2.3-1.1,8.4,3.1
		c6.1,4.2,4.4,5.8,4.4,5.8L390,340l-32.2-39.1h-8l21.6,30.7c0,0-24.5-8.7-50.5-8.7s-41.8,8-41.8,8h-4.4c0,0-14-7.3-41.6-7.1
		c-27.6,0.2-50.2,7.1-50.2,7.1L204.8,300.8z"/>
	<path class="st8" d="M210.8,291.9l-28.2,38.5c0,0,21.6-6.9,50.5-6.7c27.2,0.2,42.5,7.8,42.5,7.8v-33.6c0,0-10.5-7.6-27.1-8.7
		C231.7,288.1,210.8,291.9,210.8,291.9z"/>
	<path class="st9" d="M210.8,291.9l-0.3-0.2l-28.9,39.4l1.1-0.4c0,0,0.3-0.1,0.9-0.3c4.4-1.3,23.4-6.4,48-6.4c0.5,0,0.9,0,1.4,0
		c13.6,0.1,24.2,2,31.3,4c3.6,1,6.3,1.9,8.2,2.6c0.9,0.4,1.6,0.6,2.1,0.9c0.2,0.1,0.4,0.2,0.5,0.2c0.1,0.1,0.2,0.1,0.2,0.1l0.5,0.3
		v-34.4l-0.2-0.1c0,0-10.5-7.6-27.3-8.7c-2.1-0.1-4.4-0.2-6.6-0.2c-15.2,0-31.1,2.9-31.1,2.9l-0.1,0l-0.1,0.1L210.8,291.9l0.1,0.4
		c0,0,1-0.2,2.7-0.4c5.2-0.8,16.9-2.4,28.2-2.4c2.2,0,4.4,0.1,6.5,0.2c8.3,0.6,15,2.7,19.7,4.7c2.3,1,4.1,2,5.4,2.7
		c0.6,0.4,1.1,0.7,1.4,0.9c0.2,0.1,0.3,0.2,0.4,0.2l0.1,0.1l0.2-0.3h-0.4v33.6h0.4l0.2-0.3c0,0-15.4-7.6-42.6-7.8
		c-0.5,0-0.9,0-1.4,0c-28.3,0-49.2,6.7-49.2,6.7l0.1,0.4l0.3,0.2l28.2-38.5L210.8,291.9l0.1,0.4L210.8,291.9z"/>
	<path class="st8" d="M343.7,291.9l28.2,38.5c0,0-21.6-6.9-50.5-6.7c-27.2,0.2-42.5,7.8-42.5,7.8v-33.6c0,0,10.4-7.6,27.1-8.7
		C322.8,288.1,343.7,291.9,343.7,291.9z"/>
	<path class="st9" d="M343.7,291.9l-0.3,0.2l28.2,38.5l0.3-0.2l0.1-0.4c0,0-20.9-6.7-49.2-6.7c-0.5,0-0.9,0-1.4,0
		c-27.3,0.2-42.6,7.8-42.6,7.8l0.2,0.3h0.4v-33.6H279l0.2,0.3l0.1-0.1c1.2-0.8,11.3-7.5,26.8-8.5c2.1-0.1,4.3-0.2,6.5-0.2
		c7.5,0,15.3,0.7,21.1,1.4c2.9,0.4,5.4,0.7,7.1,1c1.7,0.3,2.7,0.4,2.7,0.4L343.7,291.9l-0.3,0.2L343.7,291.9l0.1-0.4
		c0,0-15.9-2.9-31.1-2.9c-2.2,0-4.4,0.1-6.6,0.2c-16.8,1.1-27.3,8.7-27.3,8.7l-0.2,0.1v34.4l0.5-0.3c0,0,0.1,0,0.2-0.1
		c1.7-0.8,16.7-7.5,42.1-7.7c0.5,0,0.9,0,1.4,0c14.1,0,26.3,1.7,35.1,3.3c4.4,0.8,7.8,1.7,10.2,2.3c1.2,0.3,2.1,0.6,2.7,0.8
		s0.9,0.3,0.9,0.3l1.1,0.4l-29-39.5l-0.1,0L343.7,291.9z"/>
	<path class="st10" d="M87,203.5c1.3-3.7,2-5.5,3.3-9.2c0.7-2,1.8-3.3,3.1-4c1.3-0.6,2.8-0.6,4.6,0c1.8,0.7,3,1.7,3.6,3.2
		c0.6,1.5,0.5,3.3-0.3,5.6c-0.4,1.2-0.7,1.8-1.1,3c2.6,1,3.9,1.5,6.5,2.5c-0.8,2.2-1.2,3.3-2,5.6C97.6,207.5,94.1,206.1,87,203.5z
		 M96.5,200.7c0.2-0.5,0.3-0.8,0.5-1.4c0.4-1.1,0.5-1.9,0.3-2.5c-0.2-0.6-0.6-1-1.2-1.2c-0.6-0.2-1.1-0.2-1.6,0
		c-0.5,0.2-1,0.9-1.4,1.9c-0.2,0.6-0.3,0.9-0.6,1.6C94.2,199.8,95,200.1,96.5,200.7z"/>
	<path class="st10" d="M113.9,180.2c-1.2,2.4-1.8,3.6-3,6c1,0.9,1.4,1.4,2.4,2.3c-1.1,2.2-1.6,3.2-2.7,5.4c-5.5-6-8.2-9-13.8-15
		c1.1-2.3,1.7-3.5,2.9-5.8c8.1,0.8,12.1,1.3,20.2,2.1c-1.1,2.2-1.7,3.3-2.8,5.5C115.8,180.5,115.2,180.4,113.9,180.2z M109.7,179.4
		c-2.8-0.5-4.2-0.7-7-1.2c2.1,2,3.1,3,5.2,4.9C108.5,181.7,108.9,180.9,109.7,179.4z"/>
	<path class="st10" d="M122,171.8c-6.3-4.3-9.5-6.4-15.8-10.6c2.2-3.3,3.3-4.9,5.5-8.2c1-1.5,1.9-2.6,2.7-3.2c0.8-0.6,1.7-1,2.8-1
		c1,0,2.1,0.3,3.1,1c0.9,0.6,1.5,1.3,1.9,2.1c0.4,0.8,0.6,1.7,0.5,2.6c0,0.6-0.2,1.3-0.5,2.1c0.6-0.5,1.1-0.7,1.4-0.9
		c0.3-0.1,0.7-0.2,1.4-0.2c0.7-0.1,1.1-0.1,1.4,0c2.5,0.3,3.7,0.4,6.2,0.7c-1.5,2.2-2.2,3.3-3.7,5.5c-2.6-0.3-4-0.4-6.6-0.6
		c-0.8-0.1-1.5-0.1-1.8,0.1c-0.5,0.2-0.9,0.5-1.2,1c-0.1,0.2-0.2,0.3-0.3,0.4c2.6,1.7,3.9,2.6,6.4,4.3
		C124,168.8,123.4,169.8,122,171.8z M115.9,160.5c0.6-0.8,0.8-1.2,1.4-2.1c0.1-0.2,0.4-0.7,0.7-1.4c0.2-0.4,0.2-0.7,0-1.1
		c-0.1-0.4-0.4-0.7-0.7-0.9c-0.5-0.3-1-0.4-1.5-0.3c-0.5,0.1-1,0.7-1.6,1.6c-0.6,0.9-0.9,1.3-1.4,2.2
		C114,159.2,114.6,159.6,115.9,160.5z"/>
	<path class="st10" d="M140.5,142.1c-1.8,2-2.7,3-4.4,5c0.7,1.1,1.1,1.7,1.8,2.8c-1.6,1.8-2.4,2.7-4,4.5c-3.8-7.2-5.8-10.8-9.7-18
		c1.7-1.9,2.6-2.9,4.3-4.9c7.7,2.9,11.5,4.3,19.2,7.2c-1.6,1.9-2.5,2.8-4.1,4.6C142.3,142.9,141.7,142.7,140.5,142.1z M136.6,140.3
		c-2.6-1.2-4-1.8-6.6-2.9c1.5,2.4,2.3,3.7,3.8,6.1C134.9,142.2,135.5,141.6,136.6,140.3z"/>
	<path class="st10" d="M137.8,121.9c1.8-1.6,2.7-2.4,4.4-4c3.9,4.3,5.8,6.4,9.7,10.7c2.8-2.5,4.2-3.7,6.9-6.2
		c1.3,1.4,1.9,2.1,3.2,3.5c-4.6,4-6.8,6-11.4,10.1C145.5,130.4,142.9,127.6,137.8,121.9z"/>
	<path class="st10" d="M154.7,107.4c5.2-3.7,7.9-5.5,13.1-9.2c1,1.3,1.4,2,2.4,3.3c-3.3,2.3-4.9,3.4-8.2,5.7c0.7,1,1.1,1.5,1.8,2.5
		c3-2.1,4.6-3.2,7.6-5.3c0.9,1.3,1.4,1.9,2.3,3.2c-3.1,2.1-4.6,3.2-7.6,5.3c0.9,1.2,1.3,1.8,2.2,3.1c3.4-2.4,5.1-3.5,8.5-5.9
		c1,1.4,1.5,2.1,2.5,3.6c-5.4,3.7-8,5.6-13.3,9.3C161.4,116.8,159.2,113.6,154.7,107.4z"/>
	<path class="st10" d="M189.1,100.3c-0.8-1.4-1.1-2.1-1.9-3.5c3.3-1.7,4.9-2.6,8.2-4.3c1.5,2.9,2.3,4.3,3.8,7.2c-1,1.9-2,3.3-3,4.3
		c-1,1-2.3,1.9-4,2.8c-2,1.1-3.9,1.6-5.5,1.6c-1.6,0-3.2-0.5-4.6-1.5c-1.4-1-2.6-2.4-3.6-4.1c-1-1.8-1.5-3.7-1.4-5.4
		c0-1.8,0.6-3.4,1.7-4.9c0.9-1.2,2.3-2.3,4.3-3.3c1.9-1,3.4-1.6,4.6-1.7c1.1-0.2,2.2,0,3.2,0.4c1,0.4,2,1,2.9,2
		c-1.9,1.4-2.8,2.1-4.7,3.6c-0.6-0.5-1.2-0.8-1.9-0.9c-0.7-0.1-1.4,0.1-2.2,0.5c-1.2,0.6-1.9,1.5-2.1,2.6c-0.3,1.2,0.1,2.6,1,4.3
		c1,1.8,2,3,3.1,3.4c1.1,0.4,2.3,0.3,3.6-0.3c0.6-0.3,1.1-0.7,1.6-1.1c0.4-0.4,0.9-1.1,1.4-1.8c-0.3-0.6-0.5-1-0.8-1.6
		C191.3,99.2,190.6,99.5,189.1,100.3z"/>
	<path class="st10" d="M216,92.9c-2.6,0.9-3.8,1.4-6.4,2.3c0.1,1.3,0.1,2,0.2,3.3c-2.3,0.8-3.5,1.3-5.8,2.1c0-8.2,0.1-12.3,0.1-20.5
		c2.5-0.9,3.7-1.3,6.2-2.2c5.5,6.2,8.2,9.3,13.6,15.5c-2.4,0.8-3.6,1.3-5.9,2.1C217.2,94.5,216.8,94,216,92.9z M213.4,89.4
		c-1.8-2.3-2.7-3.4-4.4-5.7c0.2,2.9,0.3,4.3,0.4,7.2C211,90.3,211.8,90,213.4,89.4z"/>
	<path class="st10" d="M223.4,73.8c2.4-0.6,3.5-0.8,5.9-1.4c1.4,5.6,2,8.4,3.4,14c3.7-0.8,5.5-1.3,9.2-2.1c0.4,1.8,0.7,2.8,1.1,4.6
		c-6,1.4-9,2.1-15,3.5C226.1,85,225.2,81.3,223.4,73.8z"/>
	<path class="st10" d="M246,82c2.3-0.4,3.4-0.6,5.7-1c0.2,0.9,0.6,1.6,1,2c0.7,0.7,1.6,1,2.8,0.9c0.9-0.1,1.5-0.4,1.9-0.8
		c0.4-0.4,0.6-0.9,0.5-1.4c-0.1-0.5-0.3-0.9-0.8-1.3c-0.5-0.3-1.6-0.6-3.2-0.8c-2.7-0.3-4.7-0.8-5.9-1.7c-1.2-0.8-2-2-2.1-3.5
		c-0.1-1,0.1-1.9,0.5-2.9c0.5-0.9,1.3-1.7,2.4-2.3c1.1-0.6,2.7-1.1,4.7-1.3c2.5-0.3,4.4,0,5.9,0.7s2.4,2.1,2.8,4.1
		c-2.3,0.4-3.4,0.6-5.6,0.9c-0.2-0.8-0.6-1.4-1.2-1.8c-0.5-0.3-1.2-0.5-2.1-0.4c-0.7,0.1-1.2,0.3-1.5,0.6c-0.3,0.3-0.5,0.7-0.4,1.1
		c0,0.3,0.2,0.6,0.5,0.8c0.3,0.2,1,0.4,2.1,0.5c2.7,0.3,4.6,0.6,5.8,1.1c1.2,0.4,2.1,1.1,2.7,1.8c0.6,0.8,1,1.7,1.1,2.7
		c0.1,1.2-0.1,2.4-0.7,3.5c-0.6,1.1-1.4,2-2.6,2.7c-1.2,0.7-2.7,1.1-4.6,1.3c-3.3,0.4-5.6,0-7.1-1.1C247.3,85.4,246.4,83.9,246,82z"
		/>
	<path class="st10" d="M293.3,83.8c-2.7-0.2-4.1-0.3-6.8-0.5c-0.5,1.2-0.7,1.8-1.2,3.1c-2.5-0.2-3.7-0.3-6.1-0.5
		c3.5-7.4,5.3-11.1,8.8-18.5c2.6,0.2,4,0.3,6.6,0.5c2.3,7.9,3.5,11.8,5.8,19.7c-2.5-0.2-3.8-0.3-6.3-0.5
		C293.7,85.8,293.6,85.1,293.3,83.8z M292.4,79.6c-0.6-2.8-1-4.2-1.6-7c-1.1,2.7-1.6,4-2.7,6.7C289.8,79.4,290.7,79.5,292.4,79.6z"
		/>
	<path class="st10" d="M304.6,81.9c2.3,0.3,3.4,0.5,5.7,0.8c-0.1,0.9,0,1.7,0.3,2.2c0.4,0.9,1.2,1.4,2.4,1.7
		c0.8,0.2,1.5,0.1,2.1-0.2c0.5-0.3,0.9-0.7,1-1.2c0.1-0.5,0-1-0.4-1.4c-0.4-0.5-1.3-1-2.8-1.7c-2.5-1.1-4.2-2.2-5.1-3.4
		c-0.9-1.2-1.2-2.5-0.9-4c0.2-1,0.7-1.8,1.4-2.6c0.8-0.7,1.8-1.2,3-1.5c1.3-0.3,2.9-0.2,4.9,0.2c2.5,0.5,4.2,1.3,5.3,2.5
		c1.1,1.2,1.6,2.7,1.4,4.7c-2.3-0.3-3.4-0.5-5.6-0.8c0-0.9-0.1-1.6-0.5-2s-1-0.8-1.8-1c-0.7-0.1-1.2-0.1-1.6,0.1
		c-0.4,0.2-0.7,0.5-0.7,0.9c-0.1,0.3,0,0.6,0.3,0.9c0.2,0.3,0.8,0.7,1.8,1.1c2.5,1.1,4.2,2,5.2,2.8c1,0.8,1.7,1.6,2,2.6
		c0.3,0.9,0.4,1.9,0.2,2.9c-0.3,1.2-0.8,2.2-1.7,3.1c-0.9,0.9-2,1.4-3.3,1.7c-1.3,0.3-2.9,0.2-4.8-0.2c-3.2-0.7-5.4-1.7-6.4-3.2
		C304.8,85.5,304.4,83.8,304.6,81.9z"/>
	<path class="st10" d="M326.7,86.7c2.2,0.6,3.3,0.9,5.5,1.5c-0.2,0.9-0.2,1.6,0,2.2c0.3,0.9,1.1,1.6,2.1,1.9
		c0.8,0.3,1.5,0.3,2.1,0.1c0.6-0.2,0.9-0.6,1.1-1.1c0.2-0.5,0.1-1-0.2-1.5c-0.3-0.5-1.1-1.2-2.6-2c-2.3-1.4-3.8-2.7-4.6-4
		c-0.8-1.3-0.9-2.6-0.4-4c0.3-0.9,0.9-1.7,1.7-2.4c0.8-0.6,1.9-1,3.2-1.1c1.3-0.1,2.9,0.2,4.8,0.8c2.4,0.8,4,1.8,5,3.1
		c0.9,1.3,1.2,2.9,0.8,4.9c-2.2-0.6-3.3-0.9-5.5-1.5c0.1-0.9,0-1.6-0.3-2.1c-0.3-0.5-0.9-0.9-1.7-1.2c-0.7-0.2-1.2-0.3-1.6-0.1
		s-0.7,0.4-0.9,0.8c-0.1,0.3,0,0.6,0.1,0.9c0.2,0.3,0.8,0.8,1.7,1.3c2.3,1.4,3.9,2.5,4.8,3.4c0.9,0.9,1.4,1.8,1.7,2.8
		c0.2,1,0.1,1.9-0.2,2.9c-0.4,1.2-1.1,2.1-2.1,2.9c-1,0.8-2.2,1.2-3.5,1.3c-1.3,0.1-2.9-0.1-4.7-0.7c-3.1-1-5.1-2.4-5.9-3.9
		C326.4,90.3,326.2,88.6,326.7,86.7z"/>
	<path class="st10" d="M349.7,91.2c1.4-2.8,3.3-4.6,5.6-5.4c2.4-0.8,5-0.5,7.8,0.9c2.9,1.4,4.8,3.3,5.6,5.6c0.8,2.3,0.5,4.8-0.9,7.6
		c-1,2-2.2,3.5-3.5,4.4c-1.3,1-2.8,1.5-4.5,1.6c-1.7,0.1-3.4-0.3-5.4-1.3c-2-0.9-3.4-2-4.4-3.3c-1-1.2-1.6-2.7-1.7-4.4
		C348.3,95.1,348.7,93.3,349.7,91.2z M355.1,93.9c-0.9,1.7-1.1,3.1-0.9,4.2c0.3,1.1,1,1.9,2.1,2.4c1.2,0.6,2.2,0.6,3.2,0.2
		c1-0.4,2-1.6,2.9-3.5c0.8-1.6,1.1-3,0.8-4c-0.3-1.1-1-1.9-2.1-2.4c-1.1-0.5-2.2-0.6-3.2-0.1C357,91,356,92.1,355.1,93.9z"/>
	<path class="st10" d="M383.3,111.8c1.4,1.7,2.1,2.5,3.5,4.2c-1.1,1-2.3,1.7-3.4,2.1s-2.4,0.5-3.6,0.3s-2.5-0.8-4-1.7
		c-1.8-1.2-3-2.3-3.8-3.6c-0.8-1.2-1.1-2.7-1.1-4.5c0-1.8,0.7-3.7,2-5.7c1.8-2.6,3.8-4.2,6.2-4.7c2.4-0.5,4.9,0.1,7.5,1.9
		c2,1.3,3.4,2.8,4,4.4c0.6,1.6,0.6,3.4,0.1,5.4c-2-0.8-3-1.2-5.1-1.9c0.2-0.6,0.3-1,0.2-1.4c0-0.6-0.2-1.1-0.4-1.5s-0.6-0.9-1.1-1.2
		c-1.1-0.7-2.3-0.9-3.5-0.4c-0.9,0.4-1.8,1.3-2.8,2.7c-1.2,1.8-1.7,3.2-1.6,4.2c0.1,1,0.6,1.8,1.6,2.5c1,0.6,1.9,0.8,2.7,0.6
		C381.6,113.2,382.4,112.6,383.3,111.8z"/>
	<path class="st10" d="M399.7,109.8c1.9,1.5,2.8,2.3,4.6,3.8c-4.9,5.9-7.4,8.8-12.3,14.8c-1.8-1.5-2.8-2.3-4.6-3.8
		C392.3,118.7,394.8,115.7,399.7,109.8z"/>
	<path class="st10" d="M407.7,138.7c-1.9-1.9-2.9-2.9-4.8-4.8c-1.2,0.6-1.7,0.9-2.9,1.6c-1.7-1.7-2.6-2.6-4.3-4.3
		c7.5-3.4,11.2-5.1,18.8-8.4c1.8,1.8,2.7,2.8,4.6,4.6c-3.4,7.4-5.2,11.1-8.6,18.6c-1.7-1.8-2.6-2.6-4.4-4.4
		C406.8,140.4,407.1,139.8,407.7,138.7z M409.8,134.9c1.4-2.5,2-3.8,3.4-6.3c-2.6,1.3-3.8,2-6.4,3.4
		C408,133.1,408.6,133.7,409.8,134.9z"/>
	<path class="st10" d="M426.1,134.8c4.5,5.7,6.7,8.5,11.1,14.2c-1.5,1.2-2.2,1.7-3.7,2.9c-1.5-1.9-2.2-2.9-3.7-4.8
		c-4.5,3.6-6.8,5.3-11.3,8.9c-1.5-1.9-2.2-2.8-3.7-4.6c4.5-3.6,6.8-5.4,11.3-8.9c-1.5-1.9-2.2-2.8-3.8-4.7
		C423.8,136.5,424.6,136,426.1,134.8z"/>
	<path class="st10" d="M441,154.8c1.3,2,1.9,3,3.2,5c-6.4,4.1-9.6,6.2-16,10.4c-1.3-2-1.9-3-3.2-5C431.4,161,434.6,158.9,441,154.8z
		"/>
	<path class="st10" d="M439.8,170.6c2.8-1.4,5.3-1.7,7.6-1c2.3,0.8,4.2,2.5,5.6,5.3c1.4,2.8,1.8,5.4,1,7.7c-0.7,2.3-2.5,4.2-5.2,5.5
		c-2,1-3.8,1.5-5.4,1.5c-1.6,0-3.1-0.5-4.4-1.4c-1.3-0.9-2.5-2.3-3.4-4.2c-1-1.9-1.5-3.7-1.5-5.2c0-1.6,0.4-3.1,1.3-4.6
		C436.4,172.8,437.8,171.6,439.8,170.6z M442.4,175.9c-1.7,0.9-2.8,1.8-3.2,2.9c-0.4,1-0.4,2.1,0.2,3.2c0.6,1.1,1.4,1.8,2.4,2.1
		c1,0.2,2.5-0.1,4.4-1.1c1.6-0.8,2.6-1.7,3-2.8c0.4-1,0.3-2.1-0.2-3.2c-0.5-1.1-1.3-1.7-2.4-2C445.6,174.7,444.2,175,442.4,175.9z"
		/>
	<path class="st10" d="M460.1,191.2c0.7,2.1,1.1,3.1,1.8,5.2c-3,4.1-4.5,6.2-7.5,10.3c3.9-1.4,5.9-2.1,9.8-3.5
		c0.7,2.1,1.1,3.2,1.8,5.3c-7.1,2.5-10.7,3.8-17.7,6.3c-0.7-2.1-1.1-3.2-1.8-5.3c3-4.1,4.4-6.2,7.4-10.3c-3.9,1.4-5.9,2.1-9.8,3.5
		c-0.7-2.1-1.1-3.1-1.8-5.2C449.4,194.9,453,193.7,460.1,191.2z"/>
	<text transform="matrix(0.989 0.1482 -0.1482 0.989 230.986 455.0551)" class="st10 st11 st12">P</text>
	<text transform="matrix(0.9979 6.501681e-02 -6.501681e-02 0.9979 251.4386 458.1212)" class="st10 st11 st12">A</text>
	<text transform="matrix(0.9987 -5.186507e-02 5.186507e-02 0.9987 276.2621 459.5161)" class="st10 st11 st12">S</text>
	<text transform="matrix(0.9783 -0.2074 0.2074 0.9783 300.0724 458.039)" class="st10 st11 st12">S</text>
</g>
</svg>
